<?xml version="1.0" encoding="utf-8"?>
<!-- Generator: Adobe Illustrator 19.1.0, SVG Export Plug-In . SVG Version: 6.00 Build 0)  -->
<svg version="1.1" id="Layer_1" xmlns="http://www.w3.org/2000/svg" xmlns:xlink="http://www.w3.org/1999/xlink" x="0px" y="0px"
	 viewBox="-186 188.6 139 136.4" style="enable-background:new -186 188.6 139 136.4;" xml:space="preserve">
<style type="text/css">
	.st0{fill-rule:evenodd;clip-rule:evenodd;fill:#FFFFFB;}
	.st1{fill:#FFFFFB;}
</style>
<g>
	<g>
		<path class="st0" d="M-113,199.7c3.1,5,7.8,14.1,11.5,21c1,1.8,3.6,5.4,3.7,6.9c0.1,1.6-2.1,3-2.3,4.4c-5.6-9.4-10.4-19.5-15.9-29
			C-115.3,201.5-113.4,201.3-113,199.7z"/>
		<path class="st0" d="M-127,199.9c1.2,0.8,2,2,3.5,2.5c-6.3,12.3-13.1,24.1-19.4,36.4c-1.5-0.5-2.4-1.5-3.9-1.8
			C-140.4,224.5-133.6,212.4-127,199.9z"/>
		<path class="st0" d="M-164.6,218.8c0.7,3.4,1.4,6.7,1.8,10.4c-2.4,0.1-4.5,0.4-6.7,0.7c-0.4-3.4-0.5-7.1-0.9-10.4
			C-168.5,219.2-166.7,218.8-164.6,218.8z"/>
		<path class="st0" d="M-60.4,258.5c-4.1,2.4-8.1,4.8-12.2,7.1c-9.4-8.6-17.6-18.4-26.7-27.2c2.6-4.2,5.4-8.1,8.1-12.2
			C-80.9,236.8-70.5,247.5-60.4,258.5z"/>
		<path class="st0" d="M-155.8,239.8c-2.2,2.6-4.6,4.9-7.4,6.9c-1.4-4-2.7-8.2-3.5-12.9C-160.3,232.3-159.9,238.2-155.8,239.8z"/>
		<path class="st0" d="M-143.9,243.3c-5.3,5.5-10.9,10.6-16.8,15.4c-0.8-1.8-1.8-3.6-3-5.1c4.4-4.7,9.4-8.7,13.8-13.4
			C-147.7,241.1-146.1,242.5-143.9,243.3z"/>
		<path class="st0" d="M-96.6,247.4c-3.5,2.1-7,4.3-11.1,5.8c5.4,0.8,10.4-0.8,14.1-2.5c2.3,1.6,4,3.7,5.8,5.8
			c-5,6.2-11.7,10.6-20.3,13.1c9.7,0.8,16.3-3.5,22.6-6.9c-2.2,2.6-5,4.5-7.4,6.9c4.9-1.1,8.9-3.1,12.2-5.8c0.5,0.9,2.5,1.6,2.5,2.3
			c0,1.1-4.9,4.5-6.5,5.5c-7.1,4.7-16.6,7.8-27.4,8.3c-21.3,1-34.6-9.4-43.3-19.8c4.6-4.1,9-8.5,13.8-12.4c12.4,5.3,32.4,3,41.2-3.9
			C-98.8,244.7-97.6,245.9-96.6,247.4z"/>
		<path class="st1" d="M-126.8,194.8c-0.9,0.1-1.2,1.3-0.4,1.8c2.3,1.4,4.8,3.5,6.9,6.3c0.9,1.2,5.7-6.1,6.4-7.3
			C-113.2,194.5-121.4,194.4-126.8,194.8z"/>
	</g>
	<g>
		<path class="st1" d="M-180.2,295.4h4.7v5.5h4.3v-5.5h4.7v14.5h-4.7v-6.1h-4.3v6.1h-4.7V295.4z"/>
		<path class="st1" d="M-155.6,298.4v2.8h5.9v3h-5.9v2.9h9.3v3h-14v-14.5h13.8v3H-155.6z"/>
		<path class="st1" d="M-140.7,309.9v-14.5h6.8l2.3,5.9l2.4-5.9h6.8v14.5h-4.6v-9.2l-3.6,9.2h-2.5l-3.5-9.2v9.2H-140.7z"/>
		<path class="st1" d="M-116.1,295.4h8.3c4,0,5.9,1.3,5.9,3.7c0,1.5-1.4,3-3.5,3.3v0.1c2.2,0.3,3.7,1.9,3.7,3.6
			c0,2.3-1.6,3.9-4.3,3.9h-10.1V295.4z M-111.5,298.4v2.8h3.1c0.9,0,1.5-0.6,1.5-1.4c0-0.8-0.6-1.4-1.5-1.4H-111.5z M-111.5,304.1
			v2.9h3.2c1,0,1.5-0.6,1.5-1.4s-0.5-1.4-1.5-1.4H-111.5z"/>
		<path class="st1" d="M-89.3,295.2c4,0,7.3,3,7.3,7.5c0,4.5-3.1,7.4-7.3,7.4c-4.2,0-7.3-3-7.3-7.4
			C-96.6,298.3-93.3,295.2-89.3,295.2z M-87,304.3v-3c0-1.9-0.8-2.9-2.3-2.9s-2.4,1-2.4,2.9v3c0,1.9,0.9,2.9,2.4,2.9
			S-87,306.1-87,304.3z"/>
		<path class="st1" d="M-66.4,301.7L-66.4,301.7l-2.8,8.2h-4.2l-4.7-14.5h4.7l2.4,8.7h0.1l2.5-8.7h4.4l2.5,8.9h0.1l2.7-8.9h4.2
			l-5,14.5h-4.2L-66.4,301.7z"/>
	</g>
</g>
</svg>
