<?xml version="1.0" encoding="utf-8"?>
<!-- Generator: Adobe Illustrator 19.1.0, SVG Export Plug-In . SVG Version: 6.00 Build 0)  -->
<svg version="1.1" id="Layer_1" xmlns="http://www.w3.org/2000/svg" xmlns:xlink="http://www.w3.org/1999/xlink" x="0px" y="0px"
	 viewBox="-186 188.6 139 136.4" style="enable-background:new -186 188.6 139 136.4;" xml:space="preserve">
<style type="text/css">
	.st0{fill-rule:evenodd;clip-rule:evenodd;}
</style>
<g>
	<g>
		<path class="st0" d="M-115.3,212.3c2.7,4.3,6.7,12.1,9.9,17.9c0.8,1.5,3.1,4.7,3.2,5.9c0,1.4-1.8,2.6-2,3.7
			c-4.8-8-8.9-16.7-13.6-24.8C-117.3,213.8-115.7,213.7-115.3,212.3z"/>
		<path class="st0" d="M-127.3,212.5c1,0.7,1.7,1.7,3,2.2c-5.4,10.5-11.2,20.6-16.6,31.1c-1.2-0.4-2-1.3-3.4-1.6
			C-138.7,233.6-132.9,223.1-127.3,212.5z"/>
		<path class="st0" d="M-159.4,228.7c0.6,2.9,1.2,5.7,1.6,8.9c-2,0.1-3.8,0.4-5.7,0.6c-0.3-2.9-0.4-6-0.8-8.9
			C-162.8,229-161.2,228.7-159.4,228.7z"/>
		<path class="st0" d="M-70.3,262.6c-3.5,2-7,4.1-10.4,6.1c-8-7.3-15-15.7-22.9-23.3c2.2-3.6,4.6-7,6.9-10.4
			C-87.9,244.1-79,253.2-70.3,262.6z"/>
		<path class="st0" d="M-151.9,246.6c-1.9,2.2-3.9,4.2-6.3,5.9c-1.2-3.4-2.3-7-3-11C-155.7,240.2-155.4,245.2-151.9,246.6z"/>
		<path class="st0" d="M-141.7,249.6c-4.5,4.7-9.3,9.1-14.4,13.2c-0.7-1.6-1.5-3.1-2.6-4.3c3.7-4,8.1-7.4,11.8-11.4
			C-145,247.7-143.6,248.9-141.7,249.6z"/>
		<path class="st0" d="M-101.3,253.1c-3,1.8-6,3.6-9.5,4.9c4.6,0.7,8.9-0.7,12-2.2c1.9,1.3,3.4,3.1,4.9,4.9c-4.3,5.3-10,9-17.3,11.2
			c8.3,0.7,13.9-3,19.3-5.9c-1.8,2.2-4.3,3.9-6.3,5.9c4.2-0.9,7.6-2.6,10.4-4.9c0.4,0.8,2.1,1.4,2.2,2c0,0.9-4.2,3.9-5.5,4.7
			c-6.1,4.1-14.2,6.7-23.5,7.1c-18.3,0.8-29.6-8-37.1-16.9c3.9-3.5,7.7-7.3,11.8-10.6c10.6,4.5,27.7,2.6,35.3-3.4
			C-103.1,250.8-102.1,251.8-101.3,253.1z"/>
		<path d="M-127.1,208.1c-0.8,0.1-1.1,1.1-0.4,1.5c2,1.2,4.1,3,5.9,5.4c0.7,1,4.8-5.2,5.5-6.2C-115.5,207.8-122.5,207.8-127.1,208.1
			z"/>
	</g>
	<g>
		<path d="M-180.2,298.4h4.7v5.5h4.3v-5.5h4.7v14.5h-4.7v-6.1h-4.3v6.1h-4.7V298.4z"/>
		<path d="M-155.6,301.4v2.8h5.9v3h-5.9v2.9h9.3v3h-14v-14.5h13.8v3H-155.6z"/>
		<path d="M-140.7,312.9v-14.5h6.8l2.3,5.9l2.4-5.9h6.8v14.5h-4.6v-9.2l-3.6,9.2h-2.5l-3.5-9.2v9.2H-140.7z"/>
		<path d="M-116.1,298.4h8.3c4,0,5.9,1.3,5.9,3.7c0,1.5-1.4,3-3.5,3.3v0.1c2.2,0.3,3.7,1.9,3.7,3.6c0,2.3-1.6,3.9-4.3,3.9h-10.1
			V298.4z M-111.5,301.4v2.8h3.1c0.9,0,1.5-0.6,1.5-1.4c0-0.8-0.6-1.4-1.5-1.4H-111.5z M-111.5,307.1v2.9h3.2c1,0,1.5-0.6,1.5-1.4
			s-0.5-1.4-1.5-1.4H-111.5z"/>
		<path d="M-89.3,298.2c4,0,7.3,3,7.3,7.5c0,4.5-3.1,7.4-7.3,7.4c-4.2,0-7.3-3-7.3-7.4C-96.6,301.3-93.3,298.2-89.3,298.2z
			 M-87,307.3v-3c0-1.9-0.8-2.9-2.3-2.9s-2.4,1-2.4,2.9v3c0,1.9,0.9,2.9,2.4,2.9S-87,309.1-87,307.3z"/>
		<path d="M-66.4,304.7L-66.4,304.7l-2.8,8.2h-4.2l-4.7-14.5h4.7l2.4,8.7h0.1l2.5-8.7h4.4l2.5,8.9h0.1l2.7-8.9h4.2l-5,14.5h-4.2
			L-66.4,304.7z"/>
	</g>
</g>
</svg>
