<?xml version="1.0" encoding="utf-8"?>
<!-- Generator: Adobe Illustrator 18.1.1, SVG Export Plug-In . SVG Version: 6.00 Build 0)  -->
<svg version="1.1" id="Layer_1" xmlns="http://www.w3.org/2000/svg" xmlns:xlink="http://www.w3.org/1999/xlink" x="0px" y="0px"
	 viewBox="0 0 116.9 93.2" enable-background="new 0 0 116.9 93.2" xml:space="preserve">
<g>
	<path fill-rule="evenodd" clip-rule="evenodd" fill="#FFFFFF" d="M60.8,4.9c3,4.8,7.5,13.6,11.1,20.3c0.9,1.7,3.5,5.3,3.6,6.7
		c0.1,1.6-2.1,2.9-2.2,4.2C67.9,27,63.2,17.2,57.9,8C58.5,6.6,60.4,6.5,60.8,4.9z"/>
	<path fill-rule="evenodd" clip-rule="evenodd" fill="#FFFFFF" d="M47.2,5.1c1.2,0.8,1.9,2,3.3,2.4c-6.1,11.8-12.6,23.3-18.7,35.2
		c-1.4-0.4-2.3-1.4-3.8-1.8C34.3,28.9,40.9,17.2,47.2,5.1z"/>
	<path fill-rule="evenodd" clip-rule="evenodd" fill="#FFFFFF" d="M10.9,23.4c0.7,3.3,1.4,6.5,1.8,10c-2.3,0.1-4.3,0.4-6.5,0.7
		c-0.4-3.3-0.4-6.8-0.9-10C7.2,23.8,8.9,23.4,10.9,23.4z"/>
	<path fill-rule="evenodd" clip-rule="evenodd" fill="#FFFFFF" d="M111.5,61.7c-4,2.3-7.9,4.6-11.8,6.9c-9.1-8.3-17-17.8-25.8-26.3
		c2.5-4,5.2-7.9,7.8-11.8C91.8,40.8,101.8,51.1,111.5,61.7z"/>
	<path fill-rule="evenodd" clip-rule="evenodd" fill="#FFFFFF" d="M19.4,43.7c-2.1,2.5-4.4,4.8-7.1,6.7c-1.4-3.9-2.6-7.9-3.3-12.5
		C15.1,36.5,15.5,42.1,19.4,43.7z"/>
	<path fill-rule="evenodd" clip-rule="evenodd" fill="#FFFFFF" d="M31,47c-5.1,5.3-10.5,10.3-16.2,14.9c-0.8-1.8-1.7-3.5-2.9-4.9
		c4.2-4.5,9.1-8.4,13.4-12.9C27.2,44.9,28.8,46.2,31,47z"/>
	<path fill-rule="evenodd" clip-rule="evenodd" fill="#FFFFFF" d="M76.6,51c-3.4,2-6.7,4.1-10.7,5.6c5.2,0.8,10.1-0.8,13.6-2.4
		c2.2,1.5,3.9,3.5,5.6,5.6c-4.8,6-11.3,10.2-19.6,12.7c9.4,0.8,15.7-3.4,21.8-6.7c-2.1,2.5-4.8,4.4-7.1,6.7c4.8-1,8.6-3,11.8-5.6
		c0.5,0.9,2.4,1.5,2.4,2.2c0,1.1-4.8,4.4-6.2,5.3c-6.9,4.6-16,7.5-26.5,8c-20.6,0.9-33.4-9.1-41.8-19.1c4.5-4,8.7-8.2,13.4-12
		c12,5.1,31.3,2.9,39.8-3.8C74.5,48.4,75.7,49.5,76.6,51z"/>
	<path fill="#FFFFFF" d="M47.4,0.2c-0.9,0.1-1.2,1.3-0.4,1.7c2.3,1.4,4.7,3.4,6.7,6.1c0.8,1.1,5.5-5.9,6.2-7
		C60.6-0.1,52.7-0.1,47.4,0.2z"/>
</g>
</svg>
