<?xml version="1.0" encoding="utf-8"?>
<!-- Generator: Adobe Illustrator 15.0.0, SVG Export Plug-In . SVG Version: 6.00 Build 0)  -->
<!DOCTYPE svg PUBLIC "-//W3C//DTD SVG 1.1//EN" "http://www.w3.org/Graphics/SVG/1.1/DTD/svg11.dtd">
<svg xmlns="http://www.w3.org/2000/svg" xmlns:xlink="http://www.w3.org/1999/xlink" version="1.1" id="Слой_1" x="0px" y="0px" width="50px" height="50px" viewBox="0 0 50 50" enable-background="new 0 0 50 50" xml:space="preserve" fill="#515151">
<path d="M27.046,20.337c-0.557-2.027-1.181-3.705-3.2-3.705c-0.666,0-1.393,0.177-2.4,0.422l-0.389,0.094  c-1.113,0.267-2.263,0.543-2.917,1.613c-0.564,0.923-0.606,2.193-0.138,4.118c0.019,0.077,1.805,7.759-2.986,14.039  c-1.676,2.196-1.286,5.232,0.887,6.911c0.748,0.58,1.454,0.932,2.098,1.047c0.217,0.039,0.447,0.059,0.684,0.059  c1.598,0,3.433-0.873,4.363-2.076C30.281,33.502,27.654,22.484,27.046,20.337z M19.5,41c-0.829,0-1.5-0.672-1.5-1.5  s0.671-1.5,1.5-1.5s1.5,0.672,1.5,1.5S20.329,41,19.5,41z" fill="#515151"/>
<g fill="#515151">
	<path d="M30.199,0C22.895,0,12.998,5.404,8.588,11.801c-3.268,4.74-2.859,8.669-1.941,11.131c0.645,1.729,1.494,3.572,3.417,3.572   c0.478,0,1.005-0.113,1.663-0.357c0.571-0.213,1.001-0.489,1.458-0.781l0.403-0.255c1.492-0.918,2.232-2.145,0.959-5.219   c-0.043-0.099-0.071-0.194-0.102-0.291c-0.28,0.125-0.557,0.251-0.815,0.376c0,0,0,0,0,0c0.002,0-1.458,0.802-2.589,1.813   c-0.19,0.171-0.429,0.255-0.666,0.255c-0.275,0-0.548-0.112-0.746-0.333c-0.368-0.412-0.333-1.043,0.079-1.412   c1.318-1.179,2.941-2.065,3.01-2.102c0.273-0.133,1.053-0.503,1.913-0.851c0.094-0.189,0.197-0.366,0.304-0.52   C17.553,13.048,24.312,9,30.199,9C32.667,9,35,11.401,35,13.94v22.121C35,38.437,33.088,41,30,41c-1.269,0-2.27-0.219-3.06-0.501   c-0.642,1.206-1.402,2.407-2.312,3.584c-1.09,1.411-2.99,2.454-4.874,2.755C22.709,48.979,26.1,50,30.199,50   C37.809,50,44,43.747,44,36.061V13.94C44,6.253,37.809,0,30.199,0z" fill="#515151"/>
</g>
</svg>
