<?xml version="1.0" encoding="utf-8"?>
<!-- Generator: Adobe Illustrator 15.0.0, SVG Export Plug-In . SVG Version: 6.00 Build 0)  -->
<!DOCTYPE svg PUBLIC "-//W3C//DTD SVG 1.1//EN" "http://www.w3.org/Graphics/SVG/1.1/DTD/svg11.dtd">
<svg xmlns="http://www.w3.org/2000/svg" xmlns:xlink="http://www.w3.org/1999/xlink" version="1.1" id="Слой_1" x="0px" y="0px" width="50px" height="50px" viewBox="0 0 50 50" enable-background="new 0 0 50 50" xml:space="preserve" fill="#c11f21">
<path d="M42,4H8C7.448,4,7,4.448,7,5v40c0,0.553,0.448,1,1,1h34c0.553,0,1-0.447,1-1V5C43,4.448,42.553,4,42,4z M17,38h-3v-2h3V38z   M17,30h-3v-2h3V30z M17,22h-3v-2h3V22z M17,14h-3v-2h3V14z M37,38H20v-2h17V38z M37,30H20v-2h17V30z M37,22H20v-2h17V22z M37,14H20  v-2h17V14z" fill="#c11f21"/>
</svg>
