<?xml version="1.0" encoding="utf-8"?>
<!-- Generator: Adobe Illustrator 15.0.0, SVG Export Plug-In . SVG Version: 6.00 Build 0)  -->
<!DOCTYPE svg PUBLIC "-//W3C//DTD SVG 1.1//EN" "http://www.w3.org/Graphics/SVG/1.1/DTD/svg11.dtd">
<svg xmlns="http://www.w3.org/2000/svg" xmlns:xlink="http://www.w3.org/1999/xlink" version="1.1" id="Слой_1" x="0px" y="0px" width="50px" height="50px" viewBox="0 0 50 50" enable-background="new 0 0 50 50" xml:space="preserve" fill="#515151">
<path d="M24.5,0c-4.962,0-9,4.038-9,9v32c0,4.963,4.038,9,9,9c4.963,0,9-4.037,9-9V9C33.5,4.038,29.463,0,24.5,0z M24.5,7  c1.104,0,2,0.896,2,2s-0.896,2-2,2s-2-0.896-2-2S23.396,7,24.5,7z M27,42h-2v2h-2v-2h-2v-2h2v-2h2v2h2V42z" fill="#515151"/>
<path d="M49.92,31.321c-0.915-2.145-1.77-3.94-2.595-5.676c-0.552-1.161-1.075-2.26-1.562-3.355  c-0.028-0.064-0.063-0.125-0.104-0.181c-2.35-3.238-6.966-8.943-10.159-12.839v14.818c1.382,1.689,2.769,3.382,3.591,4.382  c1.799,2.19,4.88,4.53,8.131,4.53c0.717,0,1.422-0.113,2.094-0.337c0.266-0.089,0.481-0.284,0.597-0.539  C50.026,31.87,50.029,31.578,49.92,31.321z" fill="#515151"/>
<path d="M13.5,13.803l-0.652-0.091l0.418-2.659l-2.659-0.418l0.418-2.658l-2.66-0.418l0.418-2.659L6.125,4.482l0.417-2.658  L3.917,1.411C3.876,1.396,3.844,1.368,3.8,1.358C3.444,1.275,2.644,0.762,2.214,0.486C1.967,0.328,1.757,0.194,1.615,0.117  c-0.287-0.156-0.632-0.164-0.927-0.02C0.395,0.242,0.19,0.521,0.139,0.844c-0.338,2.154-0.195,7.241,1.668,9.799L13.5,26.904V13.803  z" fill="#515151"/>
<path d="M13.5,41v-6c-1.266-0.911-2.489-2.325-2.498-4.403c0-0.191-0.006-0.37-0.011-0.552c-0.002-0.089-0.002-0.181-0.005-0.268  c-0.006-0.16-0.018-0.311-0.027-0.463c-0.006-0.093-0.009-0.188-0.017-0.278c-0.129-1.564-0.491-2.722-1.288-3.612  c-0.147-0.164-0.308-0.319-0.486-0.466c-0.461-0.381-1.898-0.922-2.564-0.461c0.57,1.002,2.215,4.59,1.334,5.128  c-1.211,0.736-5.366-0.746-5.024-7.602c0-0.008,0-0.016,0-0.024c-0.026,0.002-0.046,0.013-0.071,0.016  c-0.031,0-0.061-0.014-0.092-0.011C0,22.27,0,25.608,0,27.033c0,6.332,9.305,12.846,13.624,15.528C13.551,42.05,13.5,41.531,13.5,41  z" fill="#515151"/>
</svg>
