<?xml version="1.0" encoding="utf-8"?>
<!-- Generator: Adobe Illustrator 19.0.1, SVG Export Plug-In . SVG Version: 6.00 Build 0)  -->
<svg version="1.1" id="Layer_1" xmlns="http://www.w3.org/2000/svg" xmlns:xlink="http://www.w3.org/1999/xlink" x="0px" y="0px"
	 viewBox="0 0 400 400" style="enable-background:new 0 0 400 400;" xml:space="preserve">
<style type="text/css">
	.st0{fill:#B72327;}
</style>
<path class="st0" d="M198.3,11.8C95.9,11.8,13,94.7,13,197c0,4.4,0.4,8.8,0.7,13.1c10.9,2.1,22.2,5,36.8,5.4
	c14.8,0.4,20.8-2.2,25.8-5.3c14.4-8.8,32.2,1.1,39.6,2.6c21.9,4.5,38-2.9,50-9.7c0.1-2.9,0.6-5.6,1.8-8.3c0,0,0,0,0-0.1
	c-4.2-0.3-25.7-17.8-20.3-20.4c5.3-2.6,20.3,0,29.2,4.4c4.1,2,7.7,3.2,10,5.4c3.8-2.7,11.1-3.9,17.1-3.5c-1.3-1.1-2.4-2.9-2.8-4.6
	c-2.6-2.2-16.6-8.6-19.5-10.2C166.9,157.9,135,115,135,115c-2.2-3.2-20.2-14.1-17.5-21.6c1.5-4.4,12,12.9,11.3,3.7
	c-1.7-22,7.1-24.9,12.2-38.6c1.7-4.6-11.5-29.8-8.9-33.5c3.3-4.7,13.4,23.3,18.6,13.8c2.8-5-4.4-17.9,3.6-21.3
	c4.2-1.8,0.1,10.8,7.4,15.4c7,4.4,27.7-6.7,30.1-3.4c2.4,3.4-21.8,10.6-29.9,24.4c-10.6,18.3-20.8,33.4-14.1,54.7
	c1.5,4.9,5.3,11.1,10.3,17.5c0.3-5,1.2-9.7,3.7-14.1c2.9-4.9,2.2-12-3.3-19.1c-2.2-2.8-2.3-19.4-1-19.6c2.2-0.2,8.6,15.3,11.9,20.2
	c1.7-5,4.1-11.9,4.5-17.7c0.6-8.6-1.3-26.6,0.7-26.8c2.4-0.2,6.7,33.3,11.9,35c5.9,2,27.3-22.9,30-20.3c1.6,1.5-22.4,29.7-28.5,32.1
	c-11.9,4.8-11.3,12.6-11,12.8c13-4.4,18.7-5.9,25.7-5.7c4.1,0.1,4.8,1.9,4.8,3c0.1,3-4.8,5.7-8.1,6c-9.6,0.9-21.1,8.1-25.8,11.9
	c-3.5,2.8-4.5,7.3-4.6,14.8c8.2,8.3,17.2,15.4,24.2,18.3c4-7.8,9.8-19.2,13.2-23.6c11.1-14.6,9.6-15.7,12.4-24.1
	c0.2-10.1,3.7-12.8,5.1-9c4.1,10.8,9-0.8,12.4,2.5c3,2.8-2.2,4.6-2.7,7.5c-0.5,2.9,5.7-0.7,5.8,3.3c0.1,3.5-12,8.6-18,18.4
	c-2.9,4.8-1.2,6.7-0.9,6.8c15,1.3,14.1-11.3,14.1-11.3c1.2-2,2.9,1.6,3.1,9.1c0.1,4.8,13.1-2.6,10.4,2.3c-6.2,11.4-24.7,9-33.1,7.1
	c-4.5,4.5-7.7,9.8-8.8,14.9c0.7,3.5,11.7,7.7,20,9c6.9,1.5,11.4-7,13.9-7.7c7.1-1.4-6.5,10.7-4.6,11.5c9.3,4.1,25.4-3.8,25.8-4.8
	c1.9-4.3,1.3,3.3-1.4,7.5c-1.9,3,13-3.5,14.5-7.8c1.4-4.3,1.4,6.7-2.8,10.8c-2.2,2.2,7.8,3,9.3-0.2c1.4-3.2,1,9.5-6.6,14
	c-7.6,4.5-37.9-13.5-45.5-15c-3.3-0.7-8.7,4.7-9.8,6c4.9,1.9,9.7,4.4,14,7.6c6.2,4.5,4,7.1,9.8,11.1c12.1,8.2,31.1,18.5,37.4,21.3
	c10.3,4.5,7.9,6.8,9.9,14.2c2.4,9-4.1,9.3-4.1,12.1c0,2.8,1.5,5-4.7,6.5c-6.2,1.6-21.2-7.7-27.7-6c-6.5,1.7-27,10.8-34.5,9.6
	c-1.7,1.9-3.1,4.1-5.9,7.2c-7,7.7-9.2,28.9-10.1,26.4c-0.7,3.8-1.7,7.4-2.9,10.4c-1.5,3.5-15.9,29.9-17.1,25.8
	c-2,4-18.4,23.8-18,21.8c0.4-2-31.6,6.7-33.8,1.3c-0.8-2.1-8.3-0.3-8.2,0.8c-0.8-0.8-9.5-1.6-9.7-1.2c-0.4,0.9-12.1-0.4-12.1-0.4
	c2.8,2.7,8.3,5.6,11.8,9c25.5,13.2,54.4,20.8,85.1,20.8c102.3,0,185.3-83,185.3-185.3S300.6,11.8,198.3,11.8z"/>
</svg>
