<?xml version="1.0" encoding="utf-8"?>
<!-- Generator: Adobe Illustrator 19.0.1, SVG Export Plug-In . SVG Version: 6.00 Build 0)  -->
<svg version="1.1" id="Layer_1" xmlns="http://www.w3.org/2000/svg" xmlns:xlink="http://www.w3.org/1999/xlink" x="0px" y="0px"
	 viewBox="0 0 400 400" style="enable-background:new 0 0 400 400;" xml:space="preserve">
<style type="text/css">
	.st0{fill:#214B67;}
</style>
<path class="st0" d="M197.7,11.8C95.1,11.8,11.9,95,11.9,197.6c0,102.6,83.2,185.8,185.8,185.8s185.8-83.2,185.8-185.8
	C383.6,95,300.4,11.8,197.7,11.8z M339.7,206.5c-14.6,0.1-29.8-0.3-44.1,2.9c5.8,0.3,11.5,1.3,17.2,2.2c1.4,0.2,5.1,0.3,5.8,1.7
	c0.2,0.3-8.7,0.4-9.5,0.4c-9.5,0.4-16.7,3.9-25,8.2c-9,4.6-11.4,5.6-21.3,6c-4.4,0.2-15,13.5-17.6,16.8c-5.5,7-46,44-48,44.2
	c1.6-0.2,40-40.8,47.6-51.5c-8.6,10.8-18.5,20.4-28.7,29.6c-4.1,3.7-20.2,19-22.7,18.8c0.3,0,53.1-53,54.2-54.5
	c1.6-2.3,2.5-3.3-0.9-3c-4.7,0.3-102.6-2.6-104.2-2.9c-2-0.3-11.4,10.6-15.5,13.5c1.5-6-9.5-17.7-11.5-19.1
	c-2.5-1.7-16.5-3.6-19.6-4c-3.7-0.5-9.2,5.5-10.6,6.2c-2.6,1.2-11-5.3-12.8-7.4c3.2-0.8,5.9,0.3,7.4-1.4c-4.8-0.9-15.3-4.1-18.8,1.1
	c-3.1,4.6-6.4,9.2-9.8,13.6c-6.7,8.8-15.8,21.7-27,25c1.3-1.5,20.8-38,21.5-41c0.6-2.6-0.4-4.4-0.3-7c0.1-2.2,1-3,0.5-5.1
	c-0.6-2.7-21.3-38.2-22.9-39.6c10.8,2.8,19.9,14.4,26.8,22.5c3.7,4.4,7.3,9,10.7,13.7c4.5,6.2,11.5,3.6,18.1,2.2
	c-1.7-1.2-3.2-1.4-6.5-2.1c1.2-1.3,12-6.4,13.9-5.7c3,1.2,6.3,2.5,8.9,4.5c2.5,2,8.1-0.7,10.7-1.3c3-0.8,3.9-1.1,4.6-4.2
	c1,2.3,10.2-3,9.6-4.7c1.6,1.1,5.1-1.2,4.2-3.2c0.2,0.2,0.4,0.2,0.6,0.3c1.5,0.1,3.1-2.9,2.7-4.4c2.5,2.4,3.4-10,2.9-10.7
	c5,1.9-0.3-13.8-0.6-14.3c4.7,2.1-1.1-13.9-2.3-14.6c4,1.7,3.5-14.1,3.1-14.4c3.7,1.6,16.4-3.3,15.6-4c0.8,0.2,9.9,5.2,12.1,5.8
	c3,0.8-0.3-3.3-0.8-3.7c2,1,26.4,14.7,25.4,8.1c2,1.3,24.9,16.2,24.8,12c0.7,0.7,16.5,6.9,16,2.8c1,1.2,10.8-2.6,10.6-4.6
	c10.9,12.3,19.3,22.2,26.7,36.9c3.4,6.8,14.4,10.5,20.6,14.1c6.5,3.8,12.6,8.7,20.3,9.4c10.1,1,70.6,3.8,70.4,4.7
	C371.5,208.3,343,206.5,339.7,206.5z"/>
</svg>
