<?xml version="1.0" encoding="utf-8"?>
<!-- Generator: Adobe Illustrator 19.0.1, SVG Export Plug-In . SVG Version: 6.00 Build 0)  -->
<svg version="1.1" id="Layer_1" xmlns="http://www.w3.org/2000/svg" xmlns:xlink="http://www.w3.org/1999/xlink" x="0px" y="0px"
	 viewBox="0 0 400 400" style="enable-background:new 0 0 400 400;" xml:space="preserve">
<style type="text/css">
	.st0{fill:#B72327;}
</style>
<g>
	<path class="st0" d="M128.9,328.5c-0.1,0.3-0.2,0.5-0.3,0.8c0.7,0.3,1.5,0.5,2.7,0.4c2.4-0.1,18-12.1,15-36.5
		C138,303.6,135.1,330.3,128.9,328.5z"/>
	<path class="st0" d="M199.6,10.5C96.2,10.5,12.4,94.4,12.4,197.8c0,103.4,83.8,187.3,187.3,187.3s187.3-83.8,187.3-187.3
		C386.9,94.4,303.1,10.5,199.6,10.5z M327.9,328.3c-4,0.7-5.4,0.4-5.4,0.4l3.4,2.8c-3.4,1.4-12.3,3.1-20.4,2.1
		c-12.7-1.6-13.5-9-13-6c1.4,8.8-1.9,14.3-12.4,14.3c-7.8,0-51.7-2.1-58.1-0.7c-6.3,1.3-7.9-4.2-15-3.6c-7,0.6-19.7,1.3-25.8-0.2
		c-9.5-2.4-4.2-9.1-2.6-10.5c1.6-1.3,3.2-2.4,3.7-4.4c0.6-2.1,22.3-1.5,24.6-3.1c2.4-1.6,11.3-0.1,22.6-6.1c-6.6-6-11-8.9-17.5-8.9
		c-3.4,0-33.9-3.8-34.1-3.2c-0.3,0.7-1.9,1.8-2.6,2.8c-0.3,0.4-17.4,21.1-19.7,30.3c-2.9,11.7-22.6,8.3-28.1,8
		c-5.5-0.3-8.1,0.8-11.7,0.8c-3.7,0-5.5-0.3-4.7-4.4c0.1-0.2,0.1-0.4,0.1-0.5c-7.7,2.8-20.3,3.1-24,3.1c-3.6,0-5.5-0.3-4.7-4.5
		c0.8-4.2,2.4-8.5,8.7-7.8c3.7-1.6,10.5-0.9,13.8-1c5.7-0.3,14.6-7.9,16.3-23.8c1.6-14.3,0.2-19.8-0.9-24.9
		c-0.5-2.4-10.3-21.9-10.3-21.9l-6.4-14.4c0,0-1.9-15.7-3.3-17.1c-6.7-1.3-14.2-3.9-19.1-6.2c-3.9-1.8-5.4-7.3-5.4-7.3
		c-1.7-0.3-4-4.4-4-7.4c0-3,1.6-2.6,1.6-2.6s0.8,0.7,0.8-3c0-3,6.4-10.7,14-21.1c1.8-2.5,2.2-4.1,4.3-6.5
		c4.6-5.3,11.1-9.3,18.4-11.3c1.7-8.2-2.9-22.8-2.9-36.2c0-11.5-3.5-45.5,1.9-57.5c5.8-12.8,5.7-31.7,13-34.7
		c9.3-3.9,17.2,21.3,17.4,35.3c0.3,14-4.8,49-6.9,59.4c-2.1,10.4-6.7,30.6-5.9,27.7c0.7-2.9,9-17.3,12.3-25.8
		c3.3-8.6,5.3-29.5,17.3-61.8c6.6-17.5,19-32.1,23.3-32.4c12.9-0.7,9.6,12.3,12.9,33.9c2.4,15.5-6.3,39.9-12.9,55
		c-13.5,31.2-26.8,31.8-33,46c5.6,5.6,7.6,13.6,6.9,21.7c2.3,1.4,5.1,2.7,8.9,3.6c2.8,1.5,14.7-1,25.9-3.9
		c49.8-12.9,100.8,7.3,121.2,30.6c18.9,21.6,29.4,45.6,10.3,79.8c0.8,8,7.6,0.5,15.1,12.9l-4.7-1.1c0.8,3.2,6.2,6.7,6.2,6.7
		l-3.8,1.5C333.4,320.9,332,327.6,327.9,328.3z"/>
</g>
</svg>
