<?xml version="1.0" encoding="utf-8"?>
<!-- Generator: Adobe Illustrator 19.0.1, SVG Export Plug-In . SVG Version: 6.00 Build 0)  -->
<svg version="1.1" id="Layer_1" xmlns="http://www.w3.org/2000/svg" xmlns:xlink="http://www.w3.org/1999/xlink" x="0px" y="0px"
	 viewBox="0 0 400 400" style="enable-background:new 0 0 400 400;" xml:space="preserve">
<style type="text/css">
	.st0{fill:#2A6450;}
</style>
<path class="st0" d="M197.9,11.8c-41.1,0-79,13.5-109.8,36.1c-0.4,0.8-1,2-0.3,3.7c0.7,1.5-0.2,2.3,0.7,3.8c0.3-0.3,0.6-0.6,1-0.9
	c0.5-2.2,2.1-3,5-3.5c3.2,1.2,7.7,1.3,10.3,3.5c0,1.9,0,3.8,0,5.7c0.1,0,0.3,0,0.3,0c0.2-0.2,0.4-0.3,0.6-0.5c0.3-1,0.6-2,0.9-3
	c4.8-0.5,11.6-1.3,14.9,1.5c0,2,0.1,4,0.1,6.1c5.3-5,8.4-5.1,14.9-2.4c0.4,0.5,0.7,1.1,1,1.6c-0.1,1.4-0.1,2.9-0.3,4.3
	c0.2,0.1,0.3,0.2,0.4,0.3c0.3-0.3,0.6-0.6,0.9-0.9c0.2-0.4,0.4-0.7,0.5-1.1c4.6,0.3,7.3,0.7,11.7,1.4c1.3,1.8,1.4,2.8,1.4,5.4
	c1.6-1.2,3-2.1,5.6-2.8c3,1.5,7.9,1.9,7.4,7.2c9.8-3.3,7.5,2.5,12.4,5.2c1.5,0.5,2.9-0.2,4.6-0.2c2,3.5,4,2.2,4.2,7.1
	c0.8-0.4,1.6-0.7,2.3-1.1c2,0.7,1.7,0,4.5-0.8c0.3,0.2,0.6,0.4,0.9,0.6c1,2,1,3.4,1.1,5.9c0.1,0,0.2-0.1,0.3-0.1
	c3.6-2.4,6.6-0.7,8.6,2c1.9-1.4,3.4-1.9,5.5-1c0.2,0.3,0.3,0.6,0.5,1c0,2.2-0.9,3.2-1.6,4.9c2.3-1.2,3.8-2.6,6.4-1.9
	c0.6,2.9,1.2,2.7,3.2,3.4c0.1,2.8-0.3,6.4-1.2,8.8c-10.4,5.3-40.6-4.9-52.9-6.6C125,98.9,55,98,40.9,98.3
	c-15.6,24.6-25.7,53.1-28.3,83.8c1.7,0.3,3.4,0.7,4.4,1.3c2.6,1.5,5,1.5,6.8,2.8c1.8-2.3,11.3-2.9,16.1-1.8c0.6-1.4,5.3-4.9,7.8-4.5
	c1.1-5.6,17.2-7.5,19.9-5.9c2.9-2.2,8.1-1.6,9.5-3.4c2.8-1.4,14.1-1.3,19.6,1c0.7-0.3,1.4-0.5,2-0.7c0.5-1.3,6.6-4,8.9-2.4
	c0.5-2.4,11.9-3.2,17.3-2.3c0.7-1.4,21-1.7,26.4-3.2c2.6-2.2,18.2-7.2,23.4-7.5c3.2,0.7,6.3,1.5,9.5,2.2c4-1,31.6-5.2,40.7,0.5
	c2.5,1.6,4.8,5.8,6.7,7.8c1.7,0.6,12.1,8.3,15.8,10.3c14.7,7.9,64.3,5.5,69.5,5.9c7-1.3,12.4-5.5,18.5-8c14.2,2,21.9,10.7,22.5,23.3
	c0.3,5.7-3.7,6-4.5,10.2c-3.2-0.1-5.2,0.5-7.3,1.9c-0.6,0.5-0.9,2-1.4,3.4c-0.4,0.2-0.8,0.4-1.2,0.6c-0.3-0.8-0.6-1.6-1-2.4
	c-2.9-0.3-5-1-6.1,1.1c-4.9-0.7-12.3-3.5-12.3-3c-0.7-0.3-1.4-0.5-2.1-0.7c-1.5,0.8-2.1,1.6-4,1.8c-0.3,1-0.6,1.9-0.9,2.8
	c-0.7-0.6-5.6-0.8-7.3-0.3c-1.1,0.7-2.3,4.6-3.8,4.8c-0.3-1.6-0.6-3.1-1-4.6c-1.5,0-3-0.1-4.4-0.1c-0.6,1-10.7,2.1-11.3,3.4
	c-0.8-1.5-1.5-2.9-2.2-4.4c-3.7-4.6-29-0.9-31.9,1.5c-0.7-0.7-1.5-1.5-2.2-2.2c-1.3,0.2-5.7,4.8-6.1,5.1c-1.2-1.1-9.3-2.2-14.2-3
	c-0.5,0.6-0.9,1.3-1.5,1.9c-1.3-0.9-5.6-1.7-6.4-1.2c-0.8,0.3-9.9-1.3-10.1-1.1c5.6,5.5,33.9,19.4,40,16.6c0.3,0.7,5.4,2.3,7.5,1
	c0.6,1,1.1,2,1.7,2.9c3.6,0.5,3.6-1.1,5.9-2.2c0.1,1.3,3.8,4.5,6.5,4.5c5.5,8.3,17.2,13.4,28.8,17.5c5.2,1.1,21.4,6.3,24.3,7.8
	c2.4,2.1,2.1,4.8,5.8,6.2c-0.8,0.8-1,0.7-1.5,2.3c1.1,0.5,2.3,0.9,3.4,1.3c-13.1,12.5-51.3,7-74,6.6c-12.3-0.3-24.9-4.6-35.3-1.8
	c0.8,0.8-46.5,5.4-51.2,4.5c-3.2,3.6-4.2,10-7.5,12.9c-1,0.2-2,0.4-3,0.5c-0.8,1.3-1.8,2.7-2.6,4c-3.1,2.1-6.2,4.3-9.3,6.4
	c-10.9,5.6-31.2,9.8-45,10.4c-2.7-0.4-5.5-0.7-8.2-1.2c-9.4,0.1-25.4-1.6-30.8-6.4c-2.3,0.6-4.6,1.1-6.9,1.7c0,0.1,0,0.2-0.1,0.4
	c7.4,8.3,19.1,15.5,29.6,21.3c5,2.8,10.3,0.3,15.5,3.6c9.3,6,14,17.2,22,22.4c0.3,0.7,0.7,1.3,1.1,2c-4,1.5-7.5-1.9-10.3-4.1
	c-4.4,2.4-9.2,6.6-16.3,2.5c-0.4,0.6-0.7,1.1-0.9,1.6c27.6,16.2,59.7,25.7,94,25.7C300.7,384,384,300.6,384,197.9
	C384,95.1,300.7,11.8,197.9,11.8z"/>
</svg>
