<?xml version="1.0" encoding="utf-8"?>
<!-- Generator: Adobe Illustrator 19.0.1, SVG Export Plug-In . SVG Version: 6.00 Build 0)  -->
<svg version="1.1" id="Layer_1" xmlns="http://www.w3.org/2000/svg" xmlns:xlink="http://www.w3.org/1999/xlink" x="0px" y="0px"
	 viewBox="0 0 400 400" style="enable-background:new 0 0 400 400;" xml:space="preserve">
<style type="text/css">
	.st0{fill:#F05225;}
	.st1{fill:#F15A29;}
</style>
<path class="st0" d="M227.3,317.8c3.9,5.4,7.7,10.7,11.3,15.8c-1.9,1.9-4.2,3.6-6,5.7c-3.1,3.6-7.5,3.3-9-1.3
	c-1.5-4.7-2.3-9.6-3.2-14.5c-0.2-0.9,0.9-2.4,1.8-3C223.9,319.5,225.7,318.7,227.3,317.8z"/>
<path class="st0" d="M247.8,349.6c-4.3-2.9-8.7-5.7-13.1-8.6C240.8,337.7,247.2,341.1,247.8,349.6z"/>
<path class="st1" d="M200.9,15.7c-102.7,0-186,83.3-186,186c0,102.7,83.3,186.1,186,186.1s186.1-83.3,186.1-186.1
	C386.9,99,303.6,15.7,200.9,15.7z M320.9,283.6c-9.2,20.4-25.1,33.6-47.1,38.4c-10.3,2.2-20.8,0-31-2.5c-1.6-0.4-3.2-0.6-6.3-1.3
	c2.1,4.7,3.4,8.5,5.6,11.7c0.8,1.2,3.7,1.9,5.4,1.6c4.6-0.8,8.5-0.2,12.2,3c1.7,1.5,4.6,2.1,7,2.4c4.3,0.5,7.6,1.8,9,6
	c-13.3-4.8-14.1,0.2-19.9-6.3c-0.3,0.6,2.2,4.6,4.2,5.8c2.3,1.4,5,2.4,7,4.1c1.8,1.6,3,3.9,5.2,6.9c-7.9-3.4-14.4-6.3-21.5-9.4
	c1.5,5.5,2.9,10.6,4.2,15.7c-0.5,0.2-1,0.3-1.4,0.5c-1-3.6-11.8-7.3-14.2-8.5c-1.8-0.9-3.4-2.2-5.3-2.9c3.7,6.5,13.6,7.4,14.8,17
	c-6.7-3.9-12.8-7.4-19.1-11c0.6,4.8,1.3,9.4,1.9,14.1c1.2,2.9-0.6,4.4-1.9,0.6c-1.7-4.6-3.7-9.1-4.8-13.8c-0.8-3.3-4.4-7.6-7.2-7.4
	c-4.8,0.5-7.6,4.5-13.8,5.5c4.7-4.1,8.7-7.6,12.6-11.1c-3.8-7-8-14.5-12.1-22c-3.6-0.4-7.9-0.9-12.2-1.4c-5.4,1.1-10.9,2.7-15.3-3.4
	c-0.4-0.6-10.4-4.5-10.1-9c-4.8-0.6-9.3-1.1-14.4-1.7c-7.7,8.3-11.9,7.4-15.9-3.3c-16.6,12.4-16.7-2.6-18.9-5.4
	c-11.9,5.8-13.5,4.6-14.2-12.7c-20.6,5.1-14.5-9.3-14.9-14c-14.2-0.5-15.8-3.2-8.5-16.7c-17.2,1.9-12.3-10.5-10.1-14
	c-11.7-2.7-13.6-6.1-7.8-14.8c-16.3-9.1-0.8-18.6,1.9-21.7c-13.1-9.3-5.8-17.6,3.5-20.7c-16.6-12.5,2.7-18.2,6.9-20.1
	c-13.8-14.1,6.4-17.5,11.2-18.8c-15.3-17.8,10.4-16.6,14.9-16.6c-11.2-19.4,11.8-16.2,16.2-15.7c-4.2-21.8,15.4-11.8,18.6-10.4
	c0.4-22.4,16.2-9.9,20.1-7.6c6.4-22.7,18.8-4.6,20.6-2.6c11.6-20.3,18.4-3,21.1,0.3c18.7-13.7,19.6,4.2,20.8,7.3
	c9.9-27.2,22.7,2.4,22.9,2.5c27.8,0.8,8.5,40.4,5.3,47c13.6,5.6,25.3,14.4,34.4,26.5c0.4-0.3-3.4-8.9-6.2-12.5
	c-6-7.8-10.2-16.1-9.6-26.2c0.5-8.8,3.6-16.7,12.1-20.3c8.5-3.7,28.8,7.5,31.2,9c10.9,6.7,12.2,12,5.3,22.8
	c9.1,9.4,11.3,14.3,10,21.6c-3.3-2.1-6.4-4.6-10-6.1c-3.6-1.5-7.6-1.9-12-1.8c2.3,1.9,4.6,3.9,7.1,5.5c5.9,3.7,9,8.7,8.5,15.9
	c-0.3,4.1,0.6,22.3,2.5,26.7C330.1,233.4,332.2,258.5,320.9,283.6z"/>
</svg>
