<?xml version="1.0" encoding="utf-8"?>
<!-- Generator: Adobe Illustrator 19.1.0, SVG Export Plug-In . SVG Version: 6.00 Build 0)  -->
<svg version="1.1" id="Layer_1" xmlns="http://www.w3.org/2000/svg" xmlns:xlink="http://www.w3.org/1999/xlink" x="0px" y="0px"
	 viewBox="0 0 512 512" style="enable-background:new 0 0 512 512;" xml:space="preserve">
<style type="text/css">
	.st0{fill:#8B5E3C;}
</style>
<g>
	<path class="st0" d="M256.9,262.2C252.6,265.9,263.4,265.7,256.9,262.2L256.9,262.2z"/>
	<path class="st0" d="M262,296.5c-4.3,0.4-7.8,1.7-7.6,7.1C259.6,304.2,262.4,302.2,262,296.5z"/>
	<path class="st0" d="M283.5,297.9c0-4.7-3.6-5.5-7.6-5.7c-1.5,3.4-6.3,7.9-2.5,12.9C279.2,305.5,279.8,299.9,283.5,297.9z"/>
	<path class="st0" d="M264.5,319.4c2.4-3.5,5.9-5.7,8.9-8.6c0-1.9,0-3.8,0-5.7c-3.4,0-6.7,0-10.1,0c-3.4,6.6-8.2,11.7-8.9,21.4
		C260.8,327.6,259.2,319.5,264.5,319.4z"/>
	<path class="st0" d="M312.6,266.5c3.9,1,3.7-2.5,7.6-1.4c0.4-3.3-0.2-5.5-1.3-7.1C313.1,256.6,312.3,260.9,312.6,266.5z"/>
	<path class="st0" d="M270.8,290.8c0-1.4,0-2.9,0-4.3c-1.3,0-2.5,0-3.8,0c0,1.4,0,2.9,0,4.3C268.3,290.8,269.6,290.8,270.8,290.8z"
		/>
	<path class="st0" d="M277.2,222.2c0-1.4,0-2.9,0-4.3c-1.3,0-2.5,0-3.8,0c-0.4,2.3,1.2,2.5,1.3,4.3
		C275.5,222.2,276.3,222.2,277.2,222.2z"/>
	<path class="st0" d="M340.4,265.1c1.5-2.5-1.4-4.1-2.5-5.7c-0.9-1.3,0-3.6-2.5-2.9c-3.8-1.4-2.2,3.2-2.5,5.7
		c-2.9,0.7-5.2-0.9-7.6,0c-0.3,0.1,0.3,2.7,0,2.9c-1.5,1-3.8,0.8-5.1,1.4c-2.9,1.4-5.8,4-11.4,4.3c-1.5,7,5,4.8,5.1,10
		c12.1,2.7,9.5-11.2,19-11.4c0.2,4.1-4.3,2.8-2.5,8.6c4.8,0.6,5.8-3,7.6-5.7c0.7-3.2-2.4-2-2.5-4.3c0.9-1.3,2.3-2.2,3.8-2.9
		c2.4,0.6,0.1,6.5,5.1,4.3l0,0C344.9,265.6,343.7,264.2,340.4,265.1z"/>
	<path class="st0" d="M297.4,250.8c0-1.4,0-2.9,0-4.3C293.7,244.4,293.7,252.9,297.4,250.8z"/>
	<path class="st0" d="M298.7,257.9c6.6,0.8,9.6-2.5,16.4-1.4c2.1-9.6-4.3-9.4-3.8-17.2c-3.3,0.9-4.5-0.6-3.8-4.3
		c-4-0.7-5.2,1.8-6.3,4.3c-0.7,3.2,2.4,2,2.5,4.3c0.8,2.5-3.7,5.9,0,7.1C302.9,254.1,297.1,251.9,298.7,257.9z M308.8,249.4
		c2,3.5-4.3,4.2-3.8,1.4C306.6,250.7,306.7,249,308.8,249.4z"/>
	<path class="st0" d="M275.9,315.1c11.9,1.5,18.9-2.4,21.5-11.4c7.1,0.5,13.2,2.2,21.5,1.4c1.1-2.1,1-5.5,5.1-4.3
		c1.7,0.4,1,3.6,1.3,5.7c4.6,0.9,9.6,1.5,13.9,2.9c13.2-1.3,20.9-8.8,34.1-10c1.8-4.6,2.6-10.4,7.6-11.4c-0.1-4.7-2.1-7.1-1.3-12.9
		c-6-1.6-4.7,5.2-10.1,4.3c0.9,4.4-1.3,5.2-1.3,8.6c-4.3,1-7.6-6.5-11.4-1.4c-1.7-0.4-1-3.6-1.3-5.7c-4-0.7-4.9,3.1-7.6,0
		c1.6-2,4.3-2.7,7.6-2.9c1-2.7,1.6-5.8,3.8-7.1c0.9-3.8-2.6-2.8-3.8-4.3c1.5-2.1,5.5-1.4,3.8-7.1c-4.3,0.4-7.3,2.3-12.6,1.4
		c-0.4,3.3,0.2,5.5,1.3,7.1c-1.3,0.2-2.6,0.7-3.8,1.4v0l0,0c-3.8,2.2-6.6,6.6-3.8,11.4c-1.7,0-3.4,0-5.1,0c1,5.4-6.7,1-5.1,7.1
		c-2.9-2.2-12.3-2.2-15.2,0c-1.3-0.9-1.3-3.3-3.8-2.9c-0.6-1.7,0.5-8.8-6.3-7.1c-0.5,9.5-9.2,9.7-11.4,17.1c5.5,0.5,8.4-2,10.1-5.7
		c0.9,2.9,5.3,4.1,7.6,1.4C303.1,303,276,293.8,275.9,315.1z M346.7,280.8c-1-0.3-2.5,0-2.5-1.4
		C345.2,279.7,346.7,279.4,346.7,280.8z M307.5,287.9c-0.8,0-1.7,0-2.5,0c0-1,0-1.9,0-2.9c0.8,0,1.7,0,2.5,0
		C307.5,286,307.5,287,307.5,287.9z"/>
	<path class="st0" d="M293.6,267.9c-1.3,0-2.5,0-3.8,0c0.9,4.4-4.4,1.7-2.5,7.1C288.7,271.9,294.8,274.1,293.6,267.9z"/>
	<path class="st0" d="M256.9,277.9c5,1.8,3.1-4.2,6.3-4.3c4.6,0.4,8.2-0.2,11.4-1.4c2.2-7.7-4.8-5-3.8-11.4
		C263,262.1,254,269,256.9,277.9z"/>
	<path class="st0" d="M219,256.5c-1.7,0-3.4,0-5.1,0c0.2,4.6-1.2,10.9,3.8,10c-3.2,6.6,0.8,12,7.6,11.4c-0.4-4.8-2-8.2-1.3-14.3
		C222.3,261.3,218.1,261.9,219,256.5z"/>
	<path class="st0" d="M221.5,352.2c0.5-8.1,1.9-19.8,1.3-30c0-0.5,0.3-2.6,0-2.9c-0.2-0.3-2.4,0.3-2.5,0c-0.8-2.6,3.4-6.6,1.3-8.6
		c-6.3-1.7-4.8,5.2-6.3,8.6c-0.7,1.5-3.1,3.5-3.8,4.3C211.9,336.5,209.1,353,221.5,352.2z"/>
	<path class="st0" d="M211.4,312.2c-2.2-8.7,5.6-6.1,3.8-14.3c-3.9,1-3.7-2.5-7.6-1.4C206.3,301.6,201.7,313.9,211.4,312.2z"/>
	<path class="st0" d="M212.7,272.2c1.2-9.4-4.1-11.5-6.3-17.1c-2.1,0-4.2,0-6.3,0c-1.7,3.3-5.6,4.2-7.6,7.1c0,2.9,0,5.7,0,8.6
		c3.1,3.1,12-0.3,10.1,8.6C208.6,280,209.4,274.7,212.7,272.2z"/>
	<path class="st0" d="M203.8,242.2c-3.2,1.2-6.8,1.9-6.3,7.1C202,249.7,204.1,247.3,203.8,242.2z"/>
	<path class="st0" d="M256.5,0C117,0,3.8,113.2,3.8,252.7c0,90.4,47.6,169.4,118.9,214.1c3.5-1,6.9-2,10.4-3.1c2.1,0,4.2,0,6.3,0
		c5.1-1.4,10.1-2.9,15.2-4.3c0.1-2.3,3.2-1.1,2.5-4.3c6.5-1.7,12.2-4.4,17.7-7.1c12-1.3,24.2-2.2,32.9-7.1
		c-2.7-21.4-5.3-51.6,3.8-67.2c-0.2-7.4-3-11.9-3.8-18.6c-5.1-0.9-5.6-7-10.1-8.6c-1-4,1.8-3.7,1.3-7.1c-1.1-4.5-3.7-7.3-6.3-10
		c0.7-5.1-1.1-7.4-3.8-8.6c2.4-0.2,6.4-5.9,2.5-8.6c-5-1.8-3.8,3.4-3.8,7.1c-5.6-7.7-19.5,1.4-21.5-11.4c2.4-5.3,5.7,7.6,8.8,1.4
		c0.9-3.5-2.6-5.5-3.8-7.1c-1.6-2.1-2.5-4.7-5.1-5.7c-2.2-0.9,0.1-6.8-2.5-7.1c-3.4,0.4-6,1.8-7.6,4.3c-1.6,6.1,4.2,3.8,5.1,7.1
		c-2.6,6.8-5.6-4.4-10.1-4.3c-4.1-0.3-5.3,2.5-10.1,1.4c-1.6,6.1,4.2,3.8,5.1,7.1c-1.3,4.7-13.7-3.1-11.4,5.7
		c-6.7-3-11.4,0.3-17.7,1.4c-1.8,1.8-0.6,7-3.8,7.1c-1.7-1.4-1.6-4.8-3.8-5.7c-5.2,1.6-6.2-1.5-7.6-4.3c-5.5-1-5.6,4.1-10.1,4.3
		c-1.7,6.2,4.9,3,3.8,8.6c-5.4,0.9-8.1-1.3-10.1-4.3c-4.9,1.6-6.5,6.9-10.1,10c-2.6-0.9-4.8-2.2-3.8-7.1c-1.2-1.5-4.7-0.4-3.8-4.3
		c-1.4-1.7-3.6-2.6-2.5-7.1c-3.9-1.3-9.4-0.8-8.9-7.1c-0.7-5.1,3.7-4.3,7.6-4.3c-0.8-5.2-1.3-10.9-2.5-15.7c-2.1,0-4.2,0-6.3,0
		c0.8-5.6-1.9-7.4-3.8-10c1.3-3.8,1.5-8.8,1.3-14.3c0.1-5.9-5.1-5.7-3.8-12.9c3.7-4.3,2.8,2.9,7.6,1.4c0.8-5.6-3.7-5.3-5.1-8.6
		c-1.1-4.6,1.1-5.4,2.5-7.1c-1.7-4.3-4.6-8.1-2.5-12.9c0.6-4.5-3.4-3.8-3.8-7.1c4.2-3.8,8.5-7.5,8.9-15.7
		c3.8-4.3,10.1-5.8,10.1-14.3c3.1-0.8,2.7-5.5,7.6-4.3c-0.8-3.7,0.5-5.1,3.8-4.3c0.7-4.4,3.8-6.2,5.1-10c3-0.6,2.7,2.6,6.3,1.4
		c-0.8-3.7,0.5-5.1,3.8-4.3c-0.2-1.7,0.2-4.1-1.3-4.3c-0.1-2,3.7-1.6,1.3-2.9c5.1-2.3,8.2-6.3,13.9-4.3c-1-5.9,4.1-4.9,7.6-5.7
		c-1.6-6.6,6.3-2.4,3.8-10c3,0,3.7,2.5,7.6,1.4c-0.6-3.7,1.9-1.8,3.8-2.9c1.9-1,3-0.8,3.8-2.9c4.6-0.5,2,7.3,7.6,5.7
		c1.6-5.7-4.2-2.9-2.5-8.6c4-2.9,5.6,2,8.8,1.4c2.7-0.5,1.5-0.7,3.8-4.3c3.4,0,7.2-0.5,8.8,1.4c4.1,0.4,3.7-4.4,6.3-5.7
		c6.1,0.9,13.5,2.7,17.7-1.4c8.5,3.1,15.6-0.7,22.8,2.9c3.4,1,2.4-3,3.8-4.3c0.9,1.1,7.5,3.7,6.3-1.4c3.7,0.2,7.4,4.4,11.4,4.3
		c3.5-0.1,4.1-2,7.6-2.9c3.9-0.1,4.9,3,7.6,4.3c5.8-0.5,7.3-1.8,12.6,0c-1.1-4.6,1.9-4.5,3.8-5.7c1,2.2,4,2.1,3.8,5.7
		c7.5-0.9,9.5,4.5,16.4,4.3c1.7,0,1.2,2.5,2.5,2.9c4.3-0.1,8.8-0.4,10.1,2.9c6-2.1,11.2,0.5,16.4,2.9c3.4,0,6.7,0,10.1,0
		c0.6,6,9.3,2.8,8.8,10c2.1,0,4.2,0,6.3,0c1.5,0.2,1.4,2.3,1.3,4.3c4.1-0.8,5.9,1,8.9,1.4c1.7,5.3,8.8,4.3,12.6,7.1
		c3.9,1.1,1.5-4.9,6.3-2.9c4.8-0.7,4,5,10.1,2.9c2.7-0.2,0.6,5.1,1.3,7.1c3.2-0.2,4,2.2,5.1,4.3c2.9,0.5,4.9-0.2,6.3-1.4
		c1.7,7.1,8.9,8.1,10.1,15.7c1.7,0.4,2.4,2,5.1,1.4c-2.5,7.6,5.4,3.4,3.8,10c4.9-1.2,5.5,2.4,7.6,4.3c5.7,0.7,9.5-0.7,13.9-1.4
		c1.6,3.9,5.7,4.9,5.1,11.4c2.4,1.1,4.6,2.4,7.6,2.9c1.2,6.4,2.9,10.9,1.3,17.2c4-2.7,7.7,3.1,8.9-2.9c4.9,1.6,3.4,6.1,2.5,11.4
		c7.4-0.3,4.6,10.4,3.8,15.7c2.4,1.1,4.6,2.4,7.6,2.9c-1,7.8,5.6,7,5.1,14.3c5.6-1.5,3,6.2,7.6,5.7c-0.7,0.9-3,6.8,0,7.1
		c0.8,2.9-2,9.9,2.5,8.6c-3.7,2.9-2.6,9.5,0,12.9c-2.2,4-3.3,1.3-7.6,1.4c2.2,6.8-0.5,6.6-5.1,8.6c-0.1,2.5,0.3,4.4,1.3,5.7
		c-2.6,2.3-5.9,3.9-6.3,8.6c-3,0.6-2.7-2.6-6.3-1.4c0.8-3.7-0.5-5.1-3.8-4.3c0.1,2.2-0.2,5,2.5,4.3c-0.3,2-2.1,2.4-2.5,4.3
		c-1.9,2.1-5.6,2.3-8.8,2.9c-3.3,0.6-3.5,4.6-8.8,2.9c-6.5-1.5-0.9-8.8-3.8-12.9c-4-0.3-5.5,2.4-6.3,5.7c-3.9,1-3.7-2.5-7.6-1.4
		c-0.2,1.7,0.2,4.1-1.3,4.3c-7.4,1.7-8.7-11.1-13.9-7.1c-3.2,0.7,3-6.5-1.3-7.1c-2,0.1-4.4-0.2-3.8,2.9c0.5,3.4-5.8-0.8-3.8,4.3
		c-2-4.9-5-4.3-10.1-2.9c-3.4,1-2.4-3-3.8-4.3c-4.1,0.8-5.9-1-8.9-1.4c3.1-5.8,7.2-0.7,11.4,0c1-4-1.8-3.7-1.3-7.1
		c1.1-2.5,5.1-1.8,3.8-7.1c-7.5-1.3-7.7,5.6-12.6,7.1c-5.8-0.5-7.3-1.8-12.6,0c0.1,2.2-0.2,5,2.5,4.3c-1.9,4.4-10.3,3-13.9,1.4
		c-3.3,0.6-3.5,4.6-8.8,2.9c-3.4-1.8-6.5-4.1-10.1-5.7c-12.7,0.4-21.4,5.3-29.1,11.4c-23.2-2.5-33.7,4.8-43,17.1
		c-0.4,3.3-1.5,5.9-2.5,8.6c-4.4,5.5-8.6,11.9-12.6,18.6c-6.8,11.2-13.8,22.4-12.6,41.4c0.1,1.7,0.4,3.4,2.5,2.9
		c0.9,4.4-2.2,4.2-1.3,8.6c1.3,3.3,6.8,1.8,5.1,8.6c6.7-0.9,5,7.7,8.8,10c4.1,0.8,5.9-1,8.9-1.4c0.8,5.3,8.3-0.2,7.6,5.7
		c7.9-2.8,8.5,2.7,17.7,1.4c22.7,7.2,40.4,20.1,69.5,20c4.1,1.1,7.8,2.6,11.4,4.3c6-1.1,8.7,1.6,13.9,1.4c2.3,1.8,5.4,2.7,7.6,4.7
		c78-43,130.9-126,130.9-221.4C509.3,113.2,396.1,0,256.5,0z M160.9,307.9c-0.3,0.4-1.9-0.7-1.3-1.4
		C159.9,306.1,161.5,307.2,160.9,307.9z"/>
	<path class="st0" d="M231.7,249.4c-1.7,0.4-1,3.6-1.3,5.7c1.7,0,3.4,0,5.1,0C236.6,250.5,232.2,252.1,231.7,249.4z"/>
	<path class="st0" d="M244.3,295.1c-1.1,1.7-1.7,3.8-1.3,7.1c2.1,0,4.2,0,6.3,0C249.3,298,248.9,294.2,244.3,295.1z"/>
	<path class="st0" d="M235.4,315.1c0,1.9,0,3.8,0,5.7c4.2,1.4,4.1-2,3.8-5.7C238,315.1,236.7,315.1,235.4,315.1z"/>
	<path class="st0" d="M253.2,245.1c-2.7-0.7-2.4,2-2.5,4.3c1-0.3,1.3-1.4,2.5-1.4C253.2,247,253.2,246,253.2,245.1z"/>
	<path class="st0" d="M235.4,322.2c-1,6.1-1.6,12.5-2.5,18.6c1,4.6,7.4,3,5.1,11.4c4.3-6.1,7.1-13.8,8.9-22.9
		C245.4,324.3,242.5,321,235.4,322.2z"/>
	<path class="st0" d="M248.1,222.2c-0.7,0.7,0.9,1.8,1.3,1.4C250,222.9,248.4,221.8,248.1,222.2z"/>
	<path class="st0" d="M136.8,283.6c-0.2-1.2-1.3-1.4-1.3-2.9c-0.8,0-1.7,0-2.5,0C132.4,283.8,134.8,283.5,136.8,283.6z"/>
	<path class="st0" d="M182.3,277.9c0-6.7-4.8-13.9-10.1-10C171.9,275.5,177.1,276.7,182.3,277.9z"/>
	<path class="st0" d="M171,162.2c-0.7,0.7,0.9,1.8,1.3,1.4C172.9,162.9,171.3,161.8,171,162.2z"/>
	<path class="st0" d="M409.9,295.1c0,1.4,1.5,1.1,2.5,1.4C412.4,295.1,410.9,295.4,409.9,295.1z"/>
	<path class="st0" d="M404.9,255.1c-0.8,0-1.7,0-2.5,0c0,1,0,1.9,0,2.9c0.8,0,1.7,0,2.5,0C404.9,257,404.9,256,404.9,255.1z"/>
	<path class="st0" d="M174.8,237.9c1.7-0.5,2-2.5,3.8-2.9c-0.2-1.7-2.3-1.2-3.8-1.4C174.8,235.1,174.8,236.5,174.8,237.9z"/>
	<path class="st0" d="M392.2,270.8c1.3,0,2.5,0,3.8,0c0-1.4,0-2.9,0-4.3c-1.3,0-2.5,0-3.8,0C392.2,267.9,392.2,269.4,392.2,270.8z"
		/>
	<path class="st0" d="M393.5,310.8c5.2,2,6.6-7.7,3.8-10C393.2,300.9,394.6,307.3,393.5,310.8z"/>
	<path class="st0" d="M173.5,159.3c-0.7,0.7,0.9,1.8,1.3,1.4C175.4,160,173.8,158.9,173.5,159.3z"/>
	<path class="st0" d="M82.5,286.5c1.7-0.5,2-2.5,3.8-2.9c-0.2-1.7-2.3-1.2-3.8-1.4C82.5,283.6,82.5,285.1,82.5,286.5z"/>
	<path class="st0" d="M69.8,295.1c-1.4,5,7.8,3.8,5.1-1.4C72.9,293.8,70.1,293,69.8,295.1z"/>
	<path class="st0" d="M145.7,283.6c1.3,0,2.5,0,3.8,0c0-1.4,0-2.9,0-4.3C146.7,279.1,145.5,280.5,145.7,283.6z"/>
	<path class="st0" d="M384.6,303.7c1.3,0,2.5,0,3.8,0c0-1.9,0-3.8,0-5.7C386.6,299.2,383.5,299.1,384.6,303.7z"/>
	<path class="st0" d="M176,159.3c-0.7,0.7,0.9,1.8,1.3,1.4C177.9,160,176.4,158.9,176,159.3z"/>
	<path class="st0" d="M149.5,249.4c0,2.4,0,4.8,0,7.1c4.2,2.5,5.6-0.7,11.4,0c0.9-4.4-3.5-2.8-2.5-7.1
		C154.3,251.3,154.1,249.7,149.5,249.4z"/>
	<path class="st0" d="M368.2,245.1c0,1.4,1.5,1.1,2.5,1.4C370.7,245.1,369.2,245.4,368.2,245.1z"/>
	<path class="st0" d="M322.7,255.1c1.3,0,2.5,0,3.8,0c0-1.4,0-2.9,0-4.3c-1.3,0-2.5,0-3.8,0C322.7,252.2,322.7,253.6,322.7,255.1z"
		/>
	<path class="st0" d="M327.7,225.1c-0.8,0-1.7,0-2.5,0c-0.6,3,1.8,2.7,3.8,2.9C328.8,226.8,327.7,226.5,327.7,225.1z"/>
	<path class="st0" d="M325.2,246.5c1.3,0,2.5,0,3.8,0c0-1.4,0-2.9,0-4.3c-1.3,0-2.5,0-3.8,0C325.2,243.6,325.2,245.1,325.2,246.5z"
		/>
	<path class="st0" d="M325.2,257.9c0.7-0.7-0.9-1.8-1.3-1.4C323.3,257.2,324.9,258.3,325.2,257.9z"/>
	<path class="st0" d="M382.1,269.4c1.3,0,2.5,0,3.8,0c0-1.4,0-2.9,0-4.3c-1.3,0-2.5,0-3.8,0C382.1,266.5,382.1,267.9,382.1,269.4z"
		/>
	<path class="st0" d="M375.8,202.2c-0.7,0.7,0.9,1.8,1.3,1.4C377.7,202.9,376.1,201.8,375.8,202.2z"/>
	<path class="st0" d="M325.2,283.6c-0.7,0.7,0.9,1.8,1.3,1.4C327.1,284.3,325.6,283.3,325.2,283.6z"/>
	<path class="st0" d="M373.3,273.6c5.3,0.7,6.1-3.6,6.3-8.6C373.1,262.9,370.2,269.5,373.3,273.6z"/>
	<path class="st0" d="M282.2,257.9c0.2,1.7,2.3,1.2,3.8,1.4C285.8,257.7,283.7,258.2,282.2,257.9z"/>
</g>
</svg>
