<?xml version="1.0" encoding="utf-8"?>
<!-- Generator: Adobe Illustrator 19.1.0, SVG Export Plug-In . SVG Version: 6.00 Build 0)  -->
<svg version="1.1" id="Layer_1" xmlns="http://www.w3.org/2000/svg" xmlns:xlink="http://www.w3.org/1999/xlink" x="0px" y="0px"
	 viewBox="0 0 512 512" style="enable-background:new 0 0 512 512;" xml:space="preserve">
<g>
	<path d="M273,214.8c5,0,10.1,1.5,14.3,2.9c-10.7-8.6-23.6-14.3-38.7-14.3c-33,0-59.5,26.5-59.5,59.5c0,32.9,26.5,59.4,59.5,59.4
		c15,0,27.9-5.7,38.7-14.3c-4.3,2.2-9.3,2.9-14.3,2.9c-26.5,0-47.3-21.5-47.3-48.7C225.8,236.3,246.5,214.8,273,214.8z"/>
	<path d="M155.6,191.9c-7.9,0-14.3,6.4-14.3,14.3c0,7.9,6.4,14.3,14.3,14.3c7.9,0,14.3-6.4,14.3-14.3
		C169.9,198.3,163.5,191.9,155.6,191.9z"/>
	<path d="M255.9,3.5C116.2,3.5,3,116.7,3,256.3s113.2,252.9,252.9,252.9S508.7,396,508.7,256.3S395.5,3.5,255.9,3.5z M356.2,320.8
		c0,27.6-22.5,50.2-50.2,50.2H126.9c-27.6,0-50.2-22.5-50.2-50.2v-129c0-27.6,22.5-50.2,50.2-50.2H306c27.6,0,50.2,22.5,50.2,50.2
		V320.8z M430.8,338.1c-2.7,2.7-6.2,4.1-10,4.1c-2,0-3.9-0.4-5.8-1.2l-44.5-23.6V195.5l44-22.9c2-1,3.9-1.5,6-1.5
		c7.8,0,14.5,6.5,14.5,14.3V328C435,331.8,433.5,335.4,430.8,338.1z"/>
</g>
</svg>
