<?xml version="1.0" encoding="utf-8"?>
<!-- Generator: Adobe Illustrator 19.0.1, SVG Export Plug-In . SVG Version: 6.00 Build 0)  -->
<svg version="1.1" id="Layer_1" xmlns="http://www.w3.org/2000/svg" xmlns:xlink="http://www.w3.org/1999/xlink" x="0px" y="0px"
	 viewBox="0 0 400 400" style="enable-background:new 0 0 400 400;" xml:space="preserve">
<style type="text/css">
	.st0{fill:#214B67;}
</style>
<path class="st0" d="M197.8,13.8C95.8,13.8,13,96.5,13,198.5s82.7,184.8,184.8,184.8c102,0,184.8-82.7,184.8-184.8
	S299.8,13.8,197.8,13.8z M370.8,234.3c-6.1,0.7-12.2-0.8-17.9-2.5c-10.9-3.4-49.5-20.4-58.7-22.2c-3.7-0.7-8-1.4-11.7-0.8
	c-3.7,0.6-21.8,8.7-26.7,11.9c-5.5,3.6,1.8,3.5-1,6.6c-3.6,4.1-21.6,37.5-21.4,40.7c-8-2.8-14.8-7.9-21.2-13.2
	c-5.1-4.2-64.4,0.4-75.2,0.1c1,2,7.5,15.2,8.7,17.3c0.9,1.6,2.5,6.8-0.3,7.1c-3.3,0.3-7.6-3.4-10.1-5.2
	c-8.1-5.9-15.3-13.2-22.1-20.5c-1.9-2-6.8-1.8-9.5-2.3c-3-0.6-21.3-4.8-27.2-6.6c-13.7-4.2-27.9-14.7-35.9-26.4
	c-2.1-3-8.1-7.5-7.1-11.3c0.9-3.6,4.4-5.2,7.3-2.9c1.2,1,12.1,11.7,11.9,12.1c0.7-1.4-11.4-17.6-5.9-22.6c3.5-4.5,11-4.5,15.8-6.9
	c2.9-1.5,6.3-2,9.4-3.2c8.8-3.5,42.6-15.2,51-16.5c6.3-1,15.1,0,19.6-5.1c4.3-5,7.4-10.8,12.1-15.6c0.1-0.1-0.1,0.8,0.1,0.6
	c2.3-1.6,15.1-14.2,18.2-16.6c-0.1,0.1,9-4.3,10.7-4.7c-2.4,6.9,7.3,17.4,8.6,17.7c0,1.4,13,18.6,15,19.3c1,0.3,5.3,6.4,7.7,7.7
	c0.6,1.3-2,1.9-5.2,2.1c13.2,2.8,26.1,6.8,39.3,9.6c7.4,1.6,39.4,4.6,47.2,2.6c7.1-1.8,32.2-15.8,38.5-18.5
	c8.5-3.6,17.4-7.4,26.5-8.8c3.3-0.5,15.2-0.4,6.3,3.2c0.3,0.2,0.6,0.3,0.8,0.5c0.4,1-4.1,2.4-4.6,2.6c2.7,0.8-39.9,32.1-39.4,32.4
	c-0.5,0.4,49.6,33.7,46.5,34.7C374.6,231.9,375.2,233.8,370.8,234.3z"/>
</svg>
