<?xml version="1.0" encoding="utf-8"?>
<!-- Generator: Adobe Illustrator 19.0.1, SVG Export Plug-In . SVG Version: 6.00 Build 0)  -->
<svg version="1.1" id="Layer_1" xmlns="http://www.w3.org/2000/svg" xmlns:xlink="http://www.w3.org/1999/xlink" x="0px" y="0px"
	 viewBox="0 0 400 400" style="enable-background:new 0 0 400 400;" xml:space="preserve">
<style type="text/css">
	.st0{fill:#F15A29;}
</style>
<path class="st0" d="M197.5,11.8C94.7,11.8,11.4,95.1,11.4,197.9C11.4,300.6,94.7,384,197.5,384s186.1-83.3,186.1-186.1
	C383.6,95.1,300.2,11.8,197.5,11.8z M354.7,242.8c-6.8,3.5-13.7,7.2-21.1,9c-9.8,2.4-17.4,7.5-23.7,14.8
	c-15,17.4-33.9,29.4-53.9,39.9c-15.2,7.9-31.3,12.2-48.6,11.1c-11.7-0.7-23.5-1.5-35.2-2.6c-20.1-2-39.8-5.8-58.9-12.4
	c-16.7-5.8-32.3-13.5-44.9-26.3c-16.2-16.5-24.8-44.5-8.6-69.6c7.3-11.4,16.3-21.1,26.6-29.7c2-1.7,3.7-3.9,5.2-6.1
	c1.5-2.4,1-4.3-2.2-4.8c-3.9-0.7-36.4-2.7-46.1,6.2c-5.3,4.9-11.2,5.4-18.1,5.9c1.1-1.8,12.3-16.2,17.7-21.3
	c4.5-4.2,7.8-8.8,9.3-14.6c2.8-11.1,10.4-18.1,20-23.1c8.7-4.6,17.5-3.9,24.9,2.8c11.5,10.5,18.7,23.5,20.6,39
	c1.5,12.1-1.9,23.5-6.4,34.6c-1.8,4.4-3.8,8.8-5.7,13.2c0.2,0.4,0.4,0.7,0.6,1.1c3-1,6.2-1.6,8.9-3.1c18.1-10.4,37.1-18.1,58.1-19.9
	c26.3-2.3,52.3-0.5,77.5,7.2c16.5,5,32.5,11.6,48.3,18.5c18.8,8.2,63.8,9.8,66.8,9.8c-0.3,3.9-1.1,12.2-1.4,12.4
	C361.3,237.5,358.3,240.9,354.7,242.8z"/>
</svg>
