<?xml version="1.0" encoding="utf-8"?>
<!-- Generator: Adobe Illustrator 15.0.0, SVG Export Plug-In . SVG Version: 6.00 Build 0)  -->
<!DOCTYPE svg PUBLIC "-//W3C//DTD SVG 1.1//EN" "http://www.w3.org/Graphics/SVG/1.1/DTD/svg11.dtd">
<svg xmlns="http://www.w3.org/2000/svg" xmlns:xlink="http://www.w3.org/1999/xlink" version="1.1" id="Слой_1" x="0px" y="0px" width="50px" height="50px" viewBox="0 0 50 50" enable-background="new 0 0 50 50" xml:space="preserve" fill="#515151">
<path d="M24,6.643C21.531,4.734,16.219,2,6,2C5.448,2,5,2.448,5,3v36c0,0.553,0.448,1,1,1c12.057,0,16.826,2.672,18,3.487V6.643z" fill="#515151"/>
<path d="M44,2C33.781,2,28.469,4.733,26,6.643v36.845C27.176,42.672,31.945,40,44,40c0.553,0,1-0.447,1-1V3C45,2.448,44.553,2,44,2z  " fill="#515151"/>
<path d="M6,40c12.057,0,16.826,2.672,18,3.487V7.999H5V39C5,39.553,5.448,40,6,40z" fill="#515151"/>
<path d="M45,39V7.999H26v35.488C27.176,42.672,31.945,40,44,40C44.553,40,45,39.553,45,39z" fill="#515151"/>
<path d="M47.154,7.999H47V39c0,1.654-1.346,3-3,3c-11.751,0-16.106,2.608-16.86,3.131l-0.152,0.114h0.001  c-0.694,0.549-1.02,1.442-1.973,1.442c-0.952,0-1.094-0.81-1.918-1.383l-0.238-0.175C22.106,44.607,17.756,42,6,42  c-1.654,0-3-1.346-3-3V7.999H2.846c-1.57,0-2.847,1.279-2.847,2.851v33.3c0,1.572,1.277,2.851,2.847,2.851h16.615  c0.709,0.979,2.537,3,5.539,3s4.829-2.021,5.538-3h16.616c1.569,0,2.847-1.278,2.847-2.851v-33.3  C50.001,9.278,48.724,7.999,47.154,7.999z" fill="#515151"/>
</svg>
