<?xml version="1.0" encoding="utf-8"?>
<!-- Generator: Adobe Illustrator 15.0.0, SVG Export Plug-In . SVG Version: 6.00 Build 0)  -->
<!DOCTYPE svg PUBLIC "-//W3C//DTD SVG 1.1//EN" "http://www.w3.org/Graphics/SVG/1.1/DTD/svg11.dtd">
<svg xmlns="http://www.w3.org/2000/svg" xmlns:xlink="http://www.w3.org/1999/xlink" version="1.1" id="Слой_1" x="0px" y="0px" width="50px" height="50px" viewBox="0 0 50 50" enable-background="new 0 0 50 50" xml:space="preserve" fill="#545454">
<path d="M49.449,24.106c-3.7-1.861-7.947-4.404-8.37-5.224c-0.492-0.982,0.559-6.256,1.85-10.566  c0.106-0.354,0.008-0.739-0.256-0.999c-0.263-0.262-0.649-0.353-1.002-0.243c-0.066,0.021-6.723,2.099-9.52,2.099  c-0.456,0-0.608-0.059-0.625-0.066c-0.915-0.387-3.654-4.743-5.639-8.569C25.715,0.207,25.371,0.025,24.995,0  c-0.375,0.002-0.718,0.214-0.887,0.549c-1.879,3.72-4.45,7.982-5.282,8.399c-0.021,0.011-0.23,0.104-0.87,0.104  c-3.032,0-9.573-1.961-9.639-1.981c-0.352-0.104-0.736-0.01-0.997,0.251C7.06,7.584,6.965,7.968,7.072,8.32  c1.295,4.248,2.377,9.443,1.922,10.408c-0.405,0.854-4.695,3.471-8.448,5.381C0.212,24.279,0.001,24.622,0,24.997  c-0.001,0.375,0.208,0.72,0.541,0.892c3.813,1.97,8.157,4.687,8.547,5.589c0.405,0.938-0.714,6.029-2.014,10.195  c-0.11,0.354-0.016,0.741,0.247,1.004c0.262,0.264,0.648,0.36,1.003,0.249c0.066-0.021,6.676-2.049,9.579-2.049  c0.531,0,0.706,0.072,0.724,0.08c0.876,0.396,3.543,4.715,5.483,8.499c0.17,0.333,0.513,0.543,0.888,0.544C24.999,50,25,50,25,50  c0.374,0,0.716-0.209,0.888-0.541c1.974-3.816,4.696-8.163,5.603-8.552c0.016-0.008,0.174-0.069,0.646-0.069  c2.821,0,9.468,2.066,9.535,2.087c0.354,0.111,0.742,0.016,1.006-0.248c0.263-0.264,0.357-0.651,0.246-1.007  c-1.302-4.127-2.437-9.169-2.053-10.095c0.384-0.927,4.752-3.689,8.59-5.688c0.333-0.173,0.541-0.519,0.538-0.894  C49.997,24.618,49.784,24.275,49.449,24.106z M25,37c-6.627,0-12-5.373-12-12c0-6.627,5.373-12,12-12c6.627,0,12,5.373,12,12  C37,31.627,31.627,37,25,37z" fill="#545454"/>
</svg>
