<?xml version="1.0" encoding="utf-8"?>
<!-- Generator: Adobe Illustrator 15.0.0, SVG Export Plug-In . SVG Version: 6.00 Build 0)  -->
<!DOCTYPE svg PUBLIC "-//W3C//DTD SVG 1.1//EN" "http://www.w3.org/Graphics/SVG/1.1/DTD/svg11.dtd">
<svg xmlns="http://www.w3.org/2000/svg" xmlns:xlink="http://www.w3.org/1999/xlink" version="1.1" id="Слой_1" x="0px" y="0px" width="50px" height="50px" viewBox="0 0 50 50" enable-background="new 0 0 50 50" xml:space="preserve" fill="#545454">
<path d="M20.6,45.3c-0.265,0-0.52-0.105-0.707-0.293l-14.9-14.899c-0.192-0.192-0.298-0.454-0.293-0.727  c0.005-0.271,0.121-0.529,0.32-0.714l1.79-1.658c0.346-0.321,0.869-0.356,1.254-0.085l8.7,6.1c0.095,0.066,0.178,0.149,0.245,0.244  l6.1,8.7c0.274,0.392,0.233,0.923-0.098,1.268l-1.69,1.758c-0.186,0.193-0.442,0.304-0.711,0.307C20.606,45.3,20.604,45.3,20.6,45.3  z" fill="#545454"/>
<circle cx="3.5" cy="46.5" r="3.5" fill="#545454"/>
<g fill="#545454">
	<path d="M49.707,0.293c-0.268-0.268-0.665-0.362-1.023-0.242l-11.1,3.7c-0.162,0.054-0.308,0.148-0.422,0.274L14.425,28.941   l3.483,2.441c0.285,0.199,0.532,0.445,0.738,0.736l2.418,3.449l24.909-22.729c0.126-0.115,0.221-0.261,0.274-0.422l3.7-11.1   C50.068,0.957,49.975,0.561,49.707,0.293z" fill="#545454"/>
</g>
<g fill="#545454">
	<path d="M8.195,36.138l-3.925,4.923c2.416,0.341,4.328,2.254,4.669,4.67l4.923-3.926L8.195,36.138z" fill="#545454"/>
</g>
</svg>
