<?xml version="1.0" encoding="utf-8"?>
<!-- Generator: Adobe Illustrator 19.1.0, SVG Export Plug-In . SVG Version: 6.00 Build 0)  -->
<svg version="1.1" id="Layer_1" xmlns="http://www.w3.org/2000/svg" xmlns:xlink="http://www.w3.org/1999/xlink" x="0px" y="0px"
	 viewBox="0 0 512 512" style="enable-background:new 0 0 512 512;" xml:space="preserve">
<style type="text/css">
	.st0{fill:#6D6E71;}
</style>
<path class="st0" d="M256.9,3.7C118.2,3.7,5.7,116.2,5.7,254.9c0,138.7,112.5,251.2,251.2,251.2s251.2-112.5,251.2-251.2
	C508.1,116.2,395.7,3.7,256.9,3.7z M256.9,39.4c26.6,0,56.8,43,56.8,110.6H200.1C200.1,82.4,230.3,39.4,256.9,39.4z M317.5,455.3
	v15.2H196.3v-15.2h8.3v-11.4l-8.3-11.4h121.2l-8.3,11.4v11.4H317.5z M317.5,425.9H196.3V157.2h121.2V425.9z"/>
</svg>
