<?xml version="1.0" encoding="utf-8"?>
<!-- Generator: Adobe Illustrator 18.0.0, SVG Export Plug-In . SVG Version: 6.00 Build 0)  -->
<!DOCTYPE svg PUBLIC "-//W3C//DTD SVG 1.0//EN" "http://www.w3.org/TR/2001/REC-SVG-20010904/DTD/svg10.dtd">
<svg xmlns="http://www.w3.org/2000/svg" xmlns:xlink="http://www.w3.org/1999/xlink" version="1.0" id="Layer_1" x="0px" y="0px" viewBox="0 0 24 24" enable-background="new 0 0 24 24" xml:space="preserve" fill="#646464">
<path fill="none" stroke="#646464" stroke-width="2" stroke-linecap="round" stroke-miterlimit="10" d="M21,16c-3.3,0-6-2.7-6-6  c0-1.1,0.3-2.1,0.8-3c-0.3,0-0.5,0-0.8,0c-4.4,0-8,3.6-8,8s3.6,8,8,8c4.2,0,7.6-3.2,8-7.3C22.3,15.9,21.7,16,21,16z"/>
<polygon points="11,3 8.8,2.2 8,0 7.2,2.2 5,3 7.2,3.8 8,6 8.8,3.8 " fill="#646464"/>
<polygon points="6,9 3.8,8.2 3,6 2.2,8.2 0,9 2.2,9.8 3,12 3.8,9.8 " fill="#646464"/>
</svg>
