<?xml version="1.0" encoding="utf-8"?>
<!-- Generator: Adobe Illustrator 15.0.0, SVG Export Plug-In . SVG Version: 6.00 Build 0)  -->
<svg xmlns="http://www.w3.org/2000/svg" version="1.1" id="Layer_1" x="0px" y="0px" width="26px" height="26px" viewBox="0 0 26 26" enable-background="new 0 0 26 26" xml:space="preserve" fill="#ff0000">
<path style="fill:#ff0000" d="M 21.125,2 C 22.71,2 24,3.29 24,4.875 v 16.25 C 24,22.71 22.71,24 21.125,24 H 4.875 C 3.29,24 2,22.71 2,21.125 V 4.875 C 2,3.29 3.29,2 4.875,2 h 16.25 m 0,-2 H 4.875 C 2.182,0 0,2.182 0,4.875 v 16.25 C 0,23.818 2.182,26 4.875,26 h 16.25 C 23.818,26 26,23.818 26,21.125 V 4.875 C 26,2.182 23.819,0 21.125,0 l 0,0 z" fill="#ff0000"/>
<path style="fill:#ff0000" d="M 21.498,5.871 19.9,4.784 C 19.46,4.488 18.857,4.602 18.559,5.04 L 10.736,16.577 7.14,12.981 c -0.375,-0.375 -0.987,-0.375 -1.364,0 L 4.412,14.35 c -0.378,0.376 -0.378,0.989 0,1.365 l 5.526,5.528 c 0.312,0.31 0.796,0.549 1.234,0.549 0.439,0 0.88,-0.277 1.164,-0.69 L 21.755,7.209 c 0.299,-0.438 0.184,-1.04 -0.257,-1.338 z" fill="#ff0000"/>
</svg>
