<?xml version="1.0" encoding="utf-8"?>
<!-- Generator: Adobe Illustrator 15.0.0, SVG Export Plug-In . SVG Version: 6.00 Build 0)  -->
<!DOCTYPE svg PUBLIC "-//W3C//DTD SVG 1.1//EN" "http://www.w3.org/Graphics/SVG/1.1/DTD/svg11.dtd">
<svg xmlns="http://www.w3.org/2000/svg" xmlns:xlink="http://www.w3.org/1999/xlink" version="1.1" id="Слой_1" x="0px" y="0px" width="50px" height="50px" viewBox="0 0 50 50" enable-background="new 0 0 50 50" xml:space="preserve" fill="#000000">
<g fill="#000000">
	<path d="M25,13c-6.065,0-11,4.935-11,11s4.935,11,11,11s11-4.935,11-11S31.065,13,25,13z M25,33c-4.962,0-9-4.037-9-9   c0-4.962,4.038-9,9-9c4.963,0,9,4.038,9,9C34,28.963,29.963,33,25,33z" fill="#000000"/>
	<path d="M25,17c-3.86,0-7,3.14-7,7c0,3.859,3.14,7,7,7c3.859,0,7-3.141,7-7C32,20.14,28.859,17,25,17z" fill="#000000"/>
	<path d="M47,9l-9.956,0.006c-0.279-0.101-0.854-1.02-1.164-1.514C35.111,6.267,34.317,5,33,5H17c-1.317,0-2.112,1.267-2.88,2.493   C13.811,7.986,13.235,8.905,13,9H3c-1.654,0-3,1.346-3,3v27c0,1.654,1.346,3,3,3h44c1.654,0,3-1.346,3-3V12   C50,10.346,48.654,9,47,9z M9,18c-0.174,0-0.826,0-1,0c-1.104,0-2-0.896-2-2s0.896-2,2-2c0.174,0,1,0,1,0c1.104,0,2,0.896,2,2   S10.104,18,9,18z M25,37c-7.168,0-13-5.832-13-13c0-7.168,5.832-13,13-13c7.168,0,13,5.832,13,13C38,31.168,32.168,37,25,37z" fill="#000000"/>
</g>
</svg>
