<?xml version="1.0" encoding="utf-8"?>
<!-- Generator: Adobe Illustrator 15.0.0, SVG Export Plug-In . SVG Version: 6.00 Build 0)  -->
<!DOCTYPE svg PUBLIC "-//W3C//DTD SVG 1.1//EN" "http://www.w3.org/Graphics/SVG/1.1/DTD/svg11.dtd">
<svg xmlns="http://www.w3.org/2000/svg" xmlns:xlink="http://www.w3.org/1999/xlink" version="1.1" id="Слой_1" x="0px" y="0px" width="50px" height="50px" viewBox="0 0 50 50" enable-background="new 0 0 50 50" xml:space="preserve" fill="#a6a6a6">
<path d="M49,28c-0.221,0-0.44-0.073-0.621-0.216L25,9.275L1.621,27.784c-0.301,0.238-0.71,0.282-1.056,0.116  C0.219,27.733,0,27.384,0,27v-6c0-0.306,0.14-0.594,0.379-0.784l24-19c0.363-0.288,0.878-0.288,1.241,0l24,19  C49.86,20.406,50,20.694,50,21v6c0,0.384-0.22,0.733-0.564,0.9C49.297,27.967,49.148,28,49,28z" fill="#a6a6a6"/>
<g fill="#a6a6a6">
	<path d="M25,11.826L4,28.451V48c0,0.553,0.448,1,1,1h12c0.552,0,1-0.447,1-1V36.3c0-3.838,2.886-7.045,6.563-7.302   C28.634,28.747,32,31.975,32,36v12c0,0.553,0.447,1,1,1h12c0.553,0,1-0.447,1-1V28.452L25,11.826z" fill="#a6a6a6"/>
</g>
</svg>
