<?xml version="1.0" encoding="utf-8"?>
<!-- Generator: Adobe Illustrator 19.1.0, SVG Export Plug-In . SVG Version: 6.00 Build 0)  -->
<svg version="1.1" id="Layer_1" xmlns="http://www.w3.org/2000/svg" xmlns:xlink="http://www.w3.org/1999/xlink" x="0px" y="0px"
	 viewBox="0 0 512 512" style="enable-background:new 0 0 512 512;" xml:space="preserve">
<style type="text/css">
	.st0{fill:#6D6E71;}
	.st1{fill:#FFFFFF;}
</style>
<circle class="st0" cx="256" cy="255.9" r="251.4"/>
<g>
	<path class="st1" d="M434.7,255.9c0,98.5-80.2,178.7-178.7,178.7S77.3,354.4,77.3,255.9c0-98.5,80.2-178.7,178.7-178.7
		S434.7,157.3,434.7,255.9z M102.4,255.9c0,84.7,68.9,153.6,153.6,153.6c84.7,0,153.6-68.9,153.6-153.6
		c0-84.7-68.9-153.6-153.6-153.6C171.3,102.2,102.4,171.1,102.4,255.9z"/>
</g>
<path class="st1" d="M289.9,255.9c0,18.7-15.2,33.9-33.9,33.9c-18.7,0-33.9-15.2-33.9-33.9c0-18.7,15.2-33.9,33.9-33.9
	C274.7,222,289.9,237.1,289.9,255.9z"/>
<path class="st1" d="M256,37.4c0,0,0.5,0.4,1.3,1.2c0.8,0.8,2.2,1.9,3.6,3.3c1.4,1.4,3.2,3.2,4.8,5.2c0.9,1,1.8,2,2.8,3.2
	c0.5,0.6,0.5,1.1,0.2,1.7c-0.2,0.6-0.1,1.2-0.2,1.8c0,9.8,0,22.9,0,35.9c0,13.1,0,26.1,0,35.9c0,0.6-0.1,1.2,0.1,1.8
	c0.3,0.6,0.3,1.2-0.3,1.7c-1,1.1-1.9,2.2-2.8,3.2c-1.7,2-3.4,3.7-4.8,5.2c-1.3,1.4-2.7,2.5-3.5,3.3c-0.8,0.8-1.3,1.2-1.3,1.2
	s-0.4-0.4-1.3-1.2c-0.8-0.8-2.1-1.9-3.5-3.3c-1.4-1.4-3.1-3.2-4.8-5.2c-0.9-1-1.8-2.1-2.8-3.2c-0.6-0.6-0.6-1.1-0.3-1.7
	c0.2-0.6,0.1-1.2,0.1-1.8c0-9.8,0-22.9,0-35.9c0-13.1,0-26.1,0-35.9c0-0.6,0.1-1.2-0.2-1.8c-0.2-0.6-0.3-1.2,0.2-1.7
	c1-1.1,1.9-2.2,2.8-3.2c1.7-2,3.4-3.7,4.8-5.2c1.3-1.4,2.7-2.6,3.6-3.3C255.5,37.8,256,37.4,256,37.4z"/>
<path class="st1" d="M256,369.8c0,0,0.5,0.4,1.3,1.2c0.8,0.8,2.2,1.9,3.6,3.3c1.4,1.4,3.2,3.2,4.8,5.1c0.9,1,1.8,2.1,2.8,3.2
	c0.5,0.5,0.5,1.1,0.2,1.7c-0.2,0.6-0.1,1.2-0.2,1.8c0,9.8,0,22.9,0,35.9c0,13.1,0,26.1,0,35.9c0,0.6-0.1,1.2,0.1,1.8
	c0.3,0.6,0.3,1.2-0.3,1.7c-1,1.1-1.9,2.2-2.8,3.2c-1.7,2-3.4,3.7-4.8,5.2c-1.3,1.4-2.7,2.5-3.5,3.3c-0.8,0.8-1.3,1.2-1.3,1.2
	s-0.4-0.4-1.3-1.2c-0.8-0.8-2.1-1.9-3.5-3.3c-1.4-1.4-3.1-3.2-4.8-5.2c-0.9-1-1.8-2-2.8-3.2c-0.6-0.6-0.6-1.1-0.3-1.7
	c0.2-0.6,0.1-1.2,0.1-1.8c0-9.8,0-22.9,0-35.9c0-13.1,0-26.1,0-35.9c0-0.6,0.1-1.2-0.2-1.8c-0.2-0.6-0.3-1.2,0.2-1.7
	c1-1.1,1.9-2.2,2.8-3.2c1.7-2,3.4-3.7,4.8-5.1c1.3-1.4,2.7-2.6,3.6-3.3C255.5,370.2,256,369.8,256,369.8z"/>
<path class="st1" d="M474.4,255.9c0,0-0.4,0.5-1.2,1.3c-0.8,0.8-1.9,2.2-3.3,3.6c-1.4,1.4-3.2,3.2-5.2,4.8c-1,0.9-2.1,1.8-3.2,2.8
	c-0.6,0.5-1.1,0.4-1.7,0.2c-0.6-0.2-1.2-0.1-1.8-0.1c-9.8,0-22.9,0-35.9,0c-13.1,0-26.1,0-35.9,0c-0.6,0-1.2-0.1-1.8,0.1
	c-0.6,0.3-1.2,0.3-1.7-0.3c-1.1-1-2.2-1.9-3.2-2.8c-2-1.7-3.7-3.4-5.2-4.8c-1.4-1.3-2.5-2.7-3.3-3.5c-0.8-0.8-1.2-1.3-1.2-1.3
	s0.4-0.4,1.2-1.3c0.8-0.8,1.9-2.1,3.3-3.5c1.4-1.4,3.2-3.1,5.2-4.8c1-0.9,2.1-1.8,3.2-2.8c0.6-0.6,1.1-0.6,1.7-0.3
	c0.6,0.2,1.2,0.1,1.8,0.1c9.8,0,22.9,0,35.9,0c13.1,0,26.1,0,35.9,0c0.6,0,1.2,0.1,1.8-0.1c0.6-0.2,1.2-0.3,1.7,0.2
	c1.1,1,2.2,1.9,3.2,2.8c2,1.7,3.7,3.4,5.2,4.8c1.4,1.3,2.5,2.7,3.3,3.6C474,255.4,474.4,255.9,474.4,255.9z"/>
<path class="st1" d="M142.1,255.9c0,0-0.4,0.5-1.2,1.3c-0.8,0.8-1.9,2.2-3.3,3.6c-1.4,1.4-3.2,3.2-5.2,4.8c-1,0.9-2,1.8-3.2,2.8
	c-0.6,0.5-1.1,0.4-1.7,0.2c-0.6-0.2-1.2-0.1-1.8-0.1c-9.8,0-22.9,0-35.9,0c-13.1,0-26.1,0-35.9,0c-0.6,0-1.2-0.1-1.8,0.1
	c-0.6,0.3-1.2,0.3-1.7-0.3c-1.1-1-2.2-1.9-3.2-2.8c-2-1.7-3.7-3.4-5.2-4.8c-1.4-1.3-2.6-2.7-3.3-3.5c-0.8-0.8-1.2-1.3-1.2-1.3
	s0.4-0.4,1.2-1.3c0.8-0.8,1.9-2.1,3.3-3.5c1.4-1.4,3.2-3.1,5.2-4.8c1-0.9,2.1-1.8,3.2-2.8c0.6-0.6,1.1-0.6,1.7-0.3
	c0.6,0.2,1.2,0.1,1.8,0.1c9.8,0,22.9,0,35.9,0c13.1,0,26.1,0,35.9,0c0.6,0,1.2,0.1,1.8-0.1c0.6-0.2,1.2-0.3,1.7,0.2
	c1.1,1,2.2,1.9,3.2,2.8c2,1.7,3.7,3.4,5.2,4.8c1.4,1.3,2.5,2.7,3.3,3.6C141.7,255.4,142.1,255.9,142.1,255.9z"/>
</svg>
