<?xml version="1.0" encoding="utf-8"?>
<!-- Generator: Adobe Illustrator 19.1.0, SVG Export Plug-In . SVG Version: 6.00 Build 0)  -->
<svg version="1.1" id="Слой_1" xmlns="http://www.w3.org/2000/svg" xmlns:xlink="http://www.w3.org/1999/xlink" x="0px" y="0px"
	 viewBox="-280 372 50 50" style="enable-background:new -280 372 50 50;" xml:space="preserve">
<style type="text/css">
	.st0{fill:#535353;}
</style>
<path class="st0" d="M-253,392.3c-0.6-2-1.2-3.7-3.2-3.7c-0.7,0-1.4,0.2-2.4,0.4l-0.4,0.1c-1.1,0.3-2.3,0.5-2.9,1.6
	c-0.6,0.9-0.6,2.2-0.1,4.1c0,0.1,1.8,7.8-3,14c-1.7,2.2-1.3,5.2,0.9,6.9c0.7,0.6,1.5,0.9,2.1,1c0.2,0,0.4,0.1,0.7,0.1
	c1.6,0,3.4-0.9,4.4-2.1C-249.7,405.5-252.3,394.5-253,392.3z M-260.5,413c-0.8,0-1.5-0.7-1.5-1.5s0.7-1.5,1.5-1.5s1.5,0.7,1.5,1.5
	S-259.7,413-260.5,413z"/>
<g>
	<path class="st0" d="M-249.8,372c-7.3,0-17.2,5.4-21.6,11.8c-3.3,4.7-2.9,8.7-1.9,11.1c0.6,1.7,1.5,3.6,3.4,3.6
		c0.5,0,1-0.1,1.7-0.4c0.6-0.2,1-0.5,1.5-0.8l0.4-0.3c1.5-0.9,2.2-2.1,1-5.2c0-0.1-0.1-0.2-0.1-0.3c-0.3,0.1-0.6,0.3-0.8,0.4l0,0
		c0,0-1.5,0.8-2.6,1.8c-0.2,0.2-0.4,0.3-0.7,0.3c-0.3,0-0.5-0.1-0.7-0.3c-0.4-0.4-0.3-1,0.1-1.4c1.3-1.2,2.9-2.1,3-2.1
		c0.3-0.1,1.1-0.5,1.9-0.9c0.1-0.2,0.2-0.4,0.3-0.5c2.6-3.8,9.4-7.8,15.3-7.8c2.5,0,4.8,2.4,4.8,4.9v22.1c0,2.4-1.9,4.9-5,4.9
		c-1.3,0-2.3-0.2-3.1-0.5c-0.6,1.2-1.4,2.4-2.3,3.6c-1.1,1.4-3,2.5-4.9,2.8c3,2.1,6.3,3.2,10.4,3.2c7.6,0,13.8-6.3,13.8-13.9v-22.1
		C-236,378.3-242.2,372-249.8,372z"/>
</g>
</svg>
