<?xml version="1.0" encoding="utf-8"?>
<!-- Generator: Adobe Illustrator 15.0.0, SVG Export Plug-In . SVG Version: 6.00 Build 0)  -->
<!DOCTYPE svg PUBLIC "-//W3C//DTD SVG 1.1//EN" "http://www.w3.org/Graphics/SVG/1.1/DTD/svg11.dtd">
<svg xmlns="http://www.w3.org/2000/svg" xmlns:xlink="http://www.w3.org/1999/xlink" version="1.1" id="Слой_2" x="0px" y="0px" width="50px" height="50px" viewBox="0 0 50 50" enable-background="new 0 0 50 50" xml:space="preserve" fill="#a6a6a6">
<path d="M29.645,31.073c-0.106-1.584-0.106-2.641-0.106-4.013c0.739-0.316,1.901-2.744,2.111-4.644c0.527,0,1.372-0.633,1.69-2.745  c0.105-1.162-0.318-1.9-0.739-2.005c1.688-2.111,1.372-10.768-4.856-10.768L26.899,5c-8.866,0-12.139,6.861-9.604,12.667  c-0.317,0.211-0.845,0.844-0.739,2.005c0.211,2.111,1.161,2.639,1.689,2.745c0.21,2.005,1.478,4.327,2.216,4.644  c0,1.372,0,2.534-0.105,4.013C18.738,35.32,8.398,34.335,7.071,41.95C7.013,42.283,7.332,43,8.016,43C13.79,43,41.092,43,42,43  c1.016,0,0.983-0.738,0.923-1.081C41.572,34.338,31.261,35.314,29.645,31.073z" fill="#a6a6a6"/>
<path d="M40.141,29.609c-0.108-1.18-0.103-1.074-0.103-2.252c0.536-0.322,1.503-2.142,1.609-3.644c0.43,0,1.073-0.429,1.288-2.142  c0.106-0.857-0.215-1.5-0.537-1.607c1.288-1.714,1.074-8.465-3.755-8.465L38,10c-0.958,0-2.086,0.071-3.158,0.241  c0.799,2.347,0.832,5.164,0.125,7.166c0.311,0.688,0.448,1.532,0.365,2.446l-0.006,0.059l-0.009,0.059  c-0.296,1.964-1.034,3.171-1.89,3.823c-0.323,1.351-0.967,3.044-1.889,4.143c0.004,0.86,0.019,1.637,0.077,2.628  c0.536,0.851,2.314,1.551,4.038,2.23c3.128,1.232,7.285,2.884,8.815,7.205c1.686,0,3.927,0,4.53,0c1,0,1-0.984,1-0.984  C50,31.281,41.428,33.145,40.141,29.609z" fill="#a6a6a6"/>
<path d="M14.346,32.795c1.725-0.68,3.505-1.381,4.04-2.232c0.057-0.928,0.071-1.73,0.075-2.604  c-0.951-1.084-1.664-2.777-2.007-4.217c-0.813-0.601-1.674-1.739-1.889-3.888c-0.093-1.019,0.115-1.87,0.464-2.535  c-0.792-2.465-0.732-5.037,0.134-7.309c-6.677,0.114-9.62,5.426-7.614,9.968c-0.213,0.106-0.64,0.641-0.533,1.601  c0.214,1.709,0.854,2.136,1.282,2.136c0.212,1.601,1.174,3.417,1.707,3.737c0,1.066,0,1.019-0.106,2.298C9.031,32.484,0,32.281,0,39  c0,0,0,1,1,1c0.606,0,2.851,0,4.529,0C7.057,35.679,11.215,34.028,14.346,32.795z" fill="#a6a6a6"/>
</svg>
