<?xml version="1.0" encoding="utf-8"?>
<!-- Generator: Adobe Illustrator 19.1.0, SVG Export Plug-In . SVG Version: 6.00 Build 0)  -->
<svg version="1.1" id="Layer_1" xmlns="http://www.w3.org/2000/svg" xmlns:xlink="http://www.w3.org/1999/xlink" x="0px" y="0px"
	 viewBox="0 0 512 512" style="enable-background:new 0 0 512 512;" xml:space="preserve">
<style type="text/css">
	.st0{fill:#6D6E71;}
</style>
<g>
	<path class="st0" d="M282.6,237.7c-4.4-3.9-19.4-0.9-19.4-0.9c-9.7,4-18.8,10.9-26.4,17.9c-0.5,7.2-0.4,30,20.7,34.2
		c0,0,6.1,0.5-0.3,5.8c0,0-23.6,11.7-42.6-13.1c-9.1,24.5,26.7,37.6,26.7,37.6l0.2,0.7c15.1-5,51.7-21.4,58-65.1l-16.4-17.6
		L282.6,237.7z"/>
	<path class="st0" d="M228.7,341.3l-1.6,0.2c-1.3,0.2-31.3,3.9-50.7-26l-1.1-1.7l-32.2,23l34.5,56.3c1.8,6.2,26,87.7,55.6,91.2
		l1,0.1l0.7-0.8c0.1-0.1,6.5-7.5,15.2-16.1c14.3-14.3,25.8-23.4,33.5-26.3l2.7-1l-2-2.1c-0.4-0.4-36.1-39-55.1-95.3L228.7,341.3z"/>
	<path class="st0" d="M256.2,3.3C116.8,3.3,3.9,116.2,3.9,255.6c0,139.3,113,252.3,252.3,252.3s252.3-113,252.3-252.3
		C508.5,116.2,395.5,3.3,256.2,3.3z M384.2,90.4L363,111.6l4.2,4.2L290,192.9c-11.3,19.2,0.2,36.7,0.2,36.7l-0.4,0.4l20,21.4
		l-0.3,2.3c-2.7,22.5-12.6,38.8-24.3,50.5c-14.2,14.2-31,21.5-40.6,24.8l2.1,5.9c17.5,68.3,61.6,93,61.6,93
		c11.5,5.5,2.8,16.6,2.8,16.6c-17.3,4.8-58.3,47.7-58.3,47.7s25.1-16.7-1.3,1.3c-26.3,18-48.9-7.4-48.9-7.4
		c-17.5-12.5-40.9-79.2-40.9-79.2l-25.4-30.5c-9.5-15.9-32.6,2.5-32.6,2.5c-12,7.5-13.1-1.8-13.1-1.8c-0.3-4.2,10-16.6,10-16.6
		l-14.2-31.5c-11.4,0.7-16.5-10.6-16.5-10.6C66.6,303.4,83,300.8,83,300.8C79.7,286.1,94.6,275,94.6,275c-5-10.2,7.8-8.8,7.8-8.8
		l72.4-72.4l5.9,2.1l16.6-16.7l5.2,5.2l80.8-80.8l-5.3-5.4l34.4-34.6l0.8-17c10.6-11.3,21.6-4.3,21.6-4.3L347,30.2l22.6,22.6
		L152.5,269.9c-0.8,0.8-0.8,2,0,2.8c0.8,0.8,2,0.8,2.8,0L361.4,66.6l12.9,12.9l9-9l4.2,4.2l-9.5,9.5L384.2,90.4z"/>
</g>
</svg>
