<?xml version="1.0" encoding="utf-8"?>
<!-- Generator: Adobe Illustrator 17.0.0, SVG Export Plug-In . SVG Version: 6.00 Build 0)  -->
<!DOCTYPE svg PUBLIC "-//W3C//DTD SVG 1.1//EN" "http://www.w3.org/Graphics/SVG/1.1/DTD/svg11.dtd">
<svg xmlns="http://www.w3.org/2000/svg" xmlns:xlink="http://www.w3.org/1999/xlink" version="1.1" id="Layer_1" x="0px" y="0px" width="50px" height="50px" viewBox="0 0 50 50" enable-background="new 0 0 50 50" xml:space="preserve" fill="#a6a6a6">

<path fill="a6a6a6" stroke="#a6a6a6" stroke-width="2" stroke-linecap="round" stroke-miterlimit="10" d="M34,25c0,4.973-4.027,9-9,9  c-4.971,0-9-4.027-9-9c0-4.968,4.029-9,9-9C29.973,16,34,20.032,34,25z"/>
<circle fill="a6a6a6" stroke="#a6a6a6" stroke-width="2" stroke-linecap="round" stroke-miterlimit="10" cx="44" cy="29" r="5"/>
<circle fill="a6a6a6" stroke="#a6a6a6" stroke-width="2" stroke-linecap="round" stroke-miterlimit="10" cx="32" cy="6" r="5"/>
<circle fill="a6a6a6" stroke="#a6a6a6" stroke-width="2" stroke-linecap="round" stroke-miterlimit="10" cx="6" cy="6" r="5"/>
<circle fill="a6a6a6" stroke="#a6a6a6" stroke-width="2" stroke-linecap="round" stroke-miterlimit="10" cx="6" cy="40" r="5"/>
<circle fill="a6a6a6" stroke="#a6a6a6" stroke-width="2" stroke-linecap="round" stroke-miterlimit="10" cx="35" cy="44" r="5"/>
<line fill="a6a6a6" stroke="#a6a6a6" stroke-width="2" stroke-linecap="round" stroke-miterlimit="10" x1="28.153" y1="16.442" x2="30.25" y2="10.75"/>
<line fill="a6a6a6" stroke="#a6a6a6" stroke-width="2" stroke-linecap="round" stroke-miterlimit="10" x1="34.083" y1="26.912" x2="38.584" y2="27.86"/>
<line fill="a6a6a6" stroke="#a6a6a6" stroke-width="2" stroke-linecap="round" stroke-miterlimit="10" x1="29.272" y1="33.117" x2="32.621" y2="39.479"/>
<line fill="a6a6a6" stroke="#a6a6a6" stroke-width="2" stroke-linecap="round" stroke-miterlimit="10" x1="18.627" y1="18.627" x2="9.665" y2="9.665"/>
<line fill="a6a6a6" stroke="#a6a6a6" stroke-width="2" stroke-linecap="round" stroke-miterlimit="10" x1="17.686" y1="30.774" x2="10.004" y2="36.839"/>
</svg>
