<?xml version="1.0" encoding="utf-8"?>
<!-- Generator: Adobe Illustrator 15.0.0, SVG Export Plug-In . SVG Version: 6.00 Build 0)  -->
<!DOCTYPE svg PUBLIC "-//W3C//DTD SVG 1.1//EN" "http://www.w3.org/Graphics/SVG/1.1/DTD/svg11.dtd">
<svg xmlns="http://www.w3.org/2000/svg" xmlns:xlink="http://www.w3.org/1999/xlink" version="1.1" id="Layer_1" x="0px" y="0px" width="26px" height="26px" viewBox="0 0 26 26" enable-background="new 0 0 26 26" xml:space="preserve" fill="#646464">
<path fill="none" stroke="#646464" stroke-width="3" stroke-miterlimit="10" d="M21.5,9V7.917C21.5,4.229,19.669,1.5,16,1.5  s-5.5,2.757-5.5,6.417V9"/>

<path fill="#646464" d="M23,10H9c-1.656,0-3,1.344-3,3v10c0,1.656,1.344,3,3,3h14c1.656,0,3-1.344,3-3V13C26,11.344,24.656,10,23,10  z M17,18.723V21c0,0.551-0.449,1-1,1s-1-0.449-1-1v-2.277c-0.596-0.347-1-0.984-1-1.723c0-1.104,0.896-2,2-2s2,0.896,2,2  C18,17.738,17.596,18.376,17,18.723z"/>
</svg>
