<?xml version="1.0" encoding="utf-8"?>
<!-- Generator: Adobe Illustrator 15.0.0, SVG Export Plug-In . SVG Version: 6.00 Build 0)  -->
<!DOCTYPE svg PUBLIC "-//W3C//DTD SVG 1.1//EN" "http://www.w3.org/Graphics/SVG/1.1/DTD/svg11.dtd">
<svg xmlns="http://www.w3.org/2000/svg" xmlns:xlink="http://www.w3.org/1999/xlink" version="1.1" id="Слой_1" x="0px" y="0px" width="50px" height="50px" viewBox="0 0 50 50" enable-background="new 0 0 50 50" xml:space="preserve" fill="#535353">
<path d="M40.873,21.287L28.713,9.127l5.132-7.697l14.725,14.725L40.873,21.287z" fill="#535353"/>
<path d="M28.194,11.438C24.718,14.06,20.483,15,13,15h-0.82l-0.161,0.804c-1.855,9.279-8.145,27.511-8.889,29.651l18.162-18.162  c0.052-0.052,0.117-0.079,0.176-0.117c-0.176-0.362-0.283-0.764-0.283-1.193c0-1.517,1.23-2.747,2.747-2.747s2.747,1.23,2.747,2.747  c0,1.518-1.229,2.748-2.747,2.748c-0.388,0-0.756-0.082-1.09-0.228c-0.042,0.07-0.076,0.144-0.136,0.204L4.544,46.87  c2.133-0.741,20.372-7.033,29.652-8.889L35,37.821v-0.82c0-7.483,0.94-11.719,3.563-15.195L28.194,11.438z" fill="#535353"/>
</svg>
