<?xml version="1.0" encoding="utf-8"?>
<!-- Generator: Adobe Illustrator 15.0.0, SVG Export Plug-In . SVG Version: 6.00 Build 0)  -->
<!DOCTYPE svg PUBLIC "-//W3C//DTD SVG 1.1//EN" "http://www.w3.org/Graphics/SVG/1.1/DTD/svg11.dtd">
<svg xmlns="http://www.w3.org/2000/svg" xmlns:xlink="http://www.w3.org/1999/xlink" version="1.1" id="Слой_1" x="0px" y="0px" width="50px" height="50px" viewBox="0 0 50 50" enable-background="new 0 0 50 50" xml:space="preserve" fill="#a6a6a6">
<rect fill="none" width="50" height="50"/>
<path d="M33,23c-2.206,0-4-1.794-4-4s1.794-4,4-4s4,1.794,4,4S35.206,23,33,23z" fill="#a6a6a6"/>
<g fill="#a6a6a6">
	<path d="M34.548,26.105l-7.239,3.617l-9.494-13.305c-0.179-0.25-0.462-0.404-0.77-0.418c-0.306-0.006-0.604,0.115-0.804,0.348   L7,27.156V39h36v-9.875l-7.634-3.053C35.104,25.966,34.805,25.979,34.548,26.105z" fill="#a6a6a6"/>
</g>
<path d="M0,4v42h50V4H0z M45,41H5V9h40V41z" fill="#a6a6a6"/>
</svg>
