<?xml version="1.0" encoding="utf-8"?>
<!-- Generator: Adobe Illustrator 19.1.0, SVG Export Plug-In . SVG Version: 6.00 Build 0)  -->
<svg version="1.1" id="Layer_1" xmlns="http://www.w3.org/2000/svg" xmlns:xlink="http://www.w3.org/1999/xlink" x="0px" y="0px"
	 viewBox="0 0 512 512" style="enable-background:new 0 0 512 512;" xml:space="preserve">
<style type="text/css">
	.st0{fill:#6D6E71;}
</style>
<g>
	<path class="st0" d="M256.4,5C117.7,5,5.2,117.4,5.2,256.1s112.5,251.2,251.2,251.2c138.7,0,251.2-112.5,251.2-251.2
		S395.1,5,256.4,5z M265.7,160.4l12.9,12.9l-92.4,94l-14.3-14.6L265.7,160.4z M348.7,195.3l-51.5,63.2c0,0,17.9,33,6.2,45.3
		c-11.7,12.4-25.4,11-41.9,8.2c-16.5-2.7,0.7,47.4,0.7,47.4l-34.3,8.9L153,472.8l-70.7-71.4l98.9-96.8h33.7v-41.2L390.3,91.6
		c0,0-8.9-16.5-6.9-16.5c2.1,0,5.1-4.1,5.1-4.1l11,12.4l8.9-8.9l13.7,17.2l-79,90L348.7,195.3z"/>
	<circle class="st0" cx="282.8" cy="288.4" r="12"/>
</g>
</svg>
