<?xml version="1.0" encoding="utf-8"?>
<!-- Generator: Adobe Illustrator 19.1.0, SVG Export Plug-In . SVG Version: 6.00 Build 0)  -->
<svg version="1.1" id="Layer_1" xmlns="http://www.w3.org/2000/svg" xmlns:xlink="http://www.w3.org/1999/xlink" x="0px" y="0px"
	 viewBox="0 0 512 512" style="enable-background:new 0 0 512 512;" xml:space="preserve">
<style type="text/css">
	.st0{fill:#6D6E71;}
</style>
<g>
	<path class="st0" d="M239.7,295.3c4.9,4.7,12.7,4.4,17.3-0.5c4.7-4.9,4.4-12.7-0.5-17.3C251.6,272.8,234.8,290.6,239.7,295.3z"/>
	<path class="st0" d="M256.2,1.8C116.7,1.8,3.5,115,3.5,254.5c0,139.6,113.2,252.8,252.7,252.8c139.6,0,252.8-113.2,252.8-252.8
		C509,115,395.8,1.8,256.2,1.8z M363.4,147.5c5.5,5.5,5.5,14.5,0,19.9l-65.6,65.6c-5.5,5.5-14.5,5.5-19.9,0
		c-0.4-0.4-0.8-0.9-1.2-1.4l3.5,19.5l-16.5,22.2c3,3.5,4.8,7.9,4.8,12.9c0,11-8.9,19.9-19.9,19.9c-3.8,0-7.3-1.1-10.3-3h-9.3v57.9
		l-26.7,8.2l-57.9,79.4l-54.9-56.4l78-88.3l17.1-5.2l5.9-32.7L378.9,75.3l-5.9-11.1l4.5-3.7h9.7h4.5l16.3,20.8L353,143.5
		C356.7,143.4,360.5,144.7,363.4,147.5z"/>
</g>
</svg>
