<?xml version="1.0" encoding="utf-8"?>
<!-- Generator: Adobe Illustrator 15.0.0, SVG Export Plug-In . SVG Version: 6.00 Build 0)  -->
<!DOCTYPE svg PUBLIC "-//W3C//DTD SVG 1.1//EN" "http://www.w3.org/Graphics/SVG/1.1/DTD/svg11.dtd">
<svg xmlns="http://www.w3.org/2000/svg" xmlns:xlink="http://www.w3.org/1999/xlink" version="1.1" id="Слой_1" x="0px" y="0px" width="50px" height="50px" viewBox="0 0 50 50" enable-background="new 0 0 50 50" xml:space="preserve" >
<path d="M36,45H17c-4.962,0-9-4.037-9-9v-9.4c0-1.938,0.567-3.714,1.687-5.281L20.892,5.912C21.588,4.742,22.769,4,24,4  c1.661,0,4,1.427,4,4.6c0,0.908-0.248,1.518-0.488,2.108c-0.057,0.139-0.116,0.285-0.175,0.442  c-0.375,1.051-2.357,5.524-3.395,7.851c3.076,0.004,9.896,0.023,12.488,0.099h0.001c2.85,0,4.569,1.932,4.569,3.799  c0,0.642-0.107,1.516-0.197,2.131C41.685,25.556,43,26.678,43,28.7c0,1.404-0.674,2.446-1.324,3.126  C42.337,32.433,43,33.392,43,34.8c0,2.007-1.382,3.225-2.372,3.84C40.823,39.163,41,39.866,41,40.7C41,42.496,39.098,45,36,45z" fill="#999"/>
</svg>
