<?xml version="1.0" encoding="utf-8"?>
<!-- Generator: Adobe Illustrator 15.0.0, SVG Export Plug-In . SVG Version: 6.00 Build 0)  -->
<!DOCTYPE svg PUBLIC "-//W3C//DTD SVG 1.1//EN" "http://www.w3.org/Graphics/SVG/1.1/DTD/svg11.dtd">
<svg xmlns="http://www.w3.org/2000/svg" xmlns:xlink="http://www.w3.org/1999/xlink" version="1.1" id="Слой_1" x="0px" y="0px" width="50px" height="50px" viewBox="0 0 50 50" enable-background="new 0 0 50 50" xml:space="preserve" fill="#a6a6a6">
<path d="M44.651,19.728C44.11,17.669,43.6,15.724,43.6,13c0-3.39,2.251-7.472,2.273-7.513c0.218-0.39,0.15-0.878-0.166-1.194l-4-4  c-0.375-0.375-1.039-0.375-1.414,0c-1.304,1.303-4.208,2.146-7.4,2.146c-3.108,0-5.861-0.822-7.186-2.146  c-0.391-0.391-1.023-0.391-1.414,0c-1.324,1.324-4.077,2.146-7.185,2.146c-3.192,0-6.097-0.842-7.401-2.146  c-0.391-0.391-1.023-0.391-1.414,0l-4,4C3.977,4.609,3.909,5.097,4.127,5.487C4.149,5.528,6.4,9.599,6.4,13  c0,2.783-0.514,4.731-1.058,6.794C4.713,22.179,4,24.881,4,29.2c0,12.188,11.123,16.673,17.099,19.083  c1.477,0.596,2.752,1.11,3.305,1.52C24.581,49.935,24.791,50,25,50s0.419-0.065,0.596-0.197c0.553-0.409,1.828-0.924,3.306-1.52  C34.877,45.873,46,41.388,46,29.2C46,24.866,45.283,22.136,44.651,19.728z M32.1,34.7L25,30.6L17.9,34.7l1.7-8l-6.1-5.4l8.1-0.8  L25,13l3.3,7.5l8.101,0.8L30.3,26.7L32.1,34.7z" fill="#a6a6a6"/>
</svg>
