<?xml version="1.0" encoding="utf-8"?>
<!-- Generator: Adobe Illustrator 19.1.0, SVG Export Plug-In . SVG Version: 6.00 Build 0)  -->
<svg version="1.1" id="Слой_1" xmlns="http://www.w3.org/2000/svg" xmlns:xlink="http://www.w3.org/1999/xlink" x="0px" y="0px"
	 viewBox="-280 372 50 50" style="enable-background:new -280 372 50 50;" xml:space="preserve">
<style type="text/css">
	.st0{fill:#A6A6A6;}
</style>
<path class="st0" d="M-255.4,372.1c-5,0-9,4-9,9v32c0,5,4,9,9,9s9-4,9-9v-32C-246.4,376.1-250.4,372.1-255.4,372.1z M-255.4,379.1
	c1.1,0,2,0.9,2,2s-0.9,2-2,2s-2-0.9-2-2S-256.5,379.1-255.4,379.1z M-252.9,414.1h-2v2h-2v-2h-2v-2h2v-2h2v2h2V414.1z"/>
<path class="st0" d="M-230,403.4c-0.9-2.1-1.8-3.9-2.6-5.7c-0.6-1.2-1.1-2.3-1.6-3.4c0-0.1-0.1-0.1-0.1-0.2
	c-2.4-3.2-7-8.9-10.2-12.8v14.8c1.4,1.7,2.8,3.4,3.6,4.4c1.8,2.2,4.9,4.5,8.1,4.5c0.7,0,1.4-0.1,2.1-0.3c0.3-0.1,0.5-0.3,0.6-0.5
	C-229.9,404-229.9,403.7-230,403.4z"/>
<path class="st0" d="M-266.4,385.9l-0.7-0.1l0.4-2.7l-2.7-0.4l0.4-2.7l-2.7-0.4l0.4-2.7l-2.7-0.4l0.4-2.7l-2.6-0.4
	c0,0-0.1,0-0.1-0.1c-0.4-0.1-1.2-0.6-1.6-0.9c-0.2-0.2-0.5-0.3-0.6-0.4c-0.3-0.2-0.6-0.2-0.9,0c-0.3,0.1-0.5,0.4-0.5,0.7
	c-0.3,2.2-0.2,7.2,1.7,9.8l11.7,16.3v-12.9H-266.4z"/>
<path class="st0" d="M-266.4,413.1v-6c-1.3-0.9-2.5-2.3-2.5-4.4c0-0.2,0-0.4,0-0.6c0-0.1,0-0.2,0-0.3c0-0.2,0-0.3,0-0.5
	c0-0.1,0-0.2,0-0.3c-0.1-1.6-0.5-2.7-1.3-3.6c-0.1-0.2-0.3-0.3-0.5-0.5c-0.5-0.4-1.9-0.9-2.6-0.5c0.6,1,2.2,4.6,1.3,5.1
	c-1.2,0.7-5.4-0.7-5-7.6l0,0c0,0,0,0-0.1,0h-0.1c-2.8,0.3-2.8,3.6-2.8,5c0,6.3,9.3,12.8,13.6,15.5
	C-266.3,414.1-266.4,413.6-266.4,413.1z"/>
</svg>
