<?xml version="1.0" encoding="utf-8"?>
<!-- Generator: Adobe Illustrator 15.0.0, SVG Export Plug-In . SVG Version: 6.00 Build 0)  -->
<!DOCTYPE svg PUBLIC "-//W3C//DTD SVG 1.1//EN" "http://www.w3.org/Graphics/SVG/1.1/DTD/svg11.dtd">
<svg xmlns="http://www.w3.org/2000/svg" xmlns:xlink="http://www.w3.org/1999/xlink" version="1.1" id="Layer_1" x="0px" y="0px" width="50px" height="50px" viewBox="0 0 50 50" enable-background="new 0 0 50 50" xml:space="preserve" fill="#545454">
<path d="M25,0c-0.12,0-0.238,0.007-0.357,0.009C24.573,0.007,24.505,0,24.435,0c-0.029,0-0.053,0.014-0.081,0.017  C10.867,0.361,0,11.432,0,25s10.867,24.639,24.354,24.983C24.382,49.986,24.406,50,24.435,50c0.07,0,0.138-0.008,0.208-0.009  C24.762,49.992,24.88,50,25,50c13.785,0,25-11.215,25-25S38.785,0,25,0z M31.175,47.151C35.821,42.969,39,34.612,39,25  S35.821,7.031,31.175,2.849C40.867,5.554,48,14.457,48,25S40.867,44.445,31.175,47.151z" fill="#545454"/>
</svg>
