<?xml version="1.0" encoding="utf-8"?>
<!-- Generator: Adobe Illustrator 17.1.0, SVG Export Plug-In . SVG Version: 6.00 Build 0)  -->
<!DOCTYPE svg PUBLIC "-//W3C//DTD SVG 1.0//EN" "http://www.w3.org/TR/2001/REC-SVG-20010904/DTD/svg10.dtd">
<svg xmlns="http://www.w3.org/2000/svg" xmlns:xlink="http://www.w3.org/1999/xlink" version="1.0" id="Layer_1" x="0px" y="0px" width="50px" height="50px" viewBox="0 0 50 50" style="enable-background:new 0 0 50 50" xml:space="preserve" fill="#535353">
<line style="fill:none;stroke:#535353;stroke-width:2;stroke-linecap:round;stroke-linejoin:round;stroke-miterlimit:10" x1="1" y1="25" x2="39.4" y2="25" fill="#535353"/>
<line style="fill:none;stroke:#535353;stroke-width:2;stroke-linecap:round;stroke-linejoin:round;stroke-miterlimit:10" x1="1" y1="17" x2="26.5" y2="17" fill="#535353"/>
<path style="fill:none;stroke:#535353;stroke-width:2;stroke-linecap:round;stroke-linejoin:round;stroke-miterlimit:10" d="  M39.4,25c5.3,0,9.6,4.3,9.6,9.6s-4.3,9.4-9.6,9.6c-4.1,0.1-7.5-2.4-8.9-6.3" fill="#535353"/>
<path style="fill:none;stroke:#535353;stroke-width:2;stroke-linecap:round;stroke-linejoin:round;stroke-miterlimit:10" d="  M26.5,17c4.1,0,7.5-3.4,7.5-7.5S30.6,2,26.5,2c-3.2,0-5.9,2-7,4.8" fill="#535353"/>
<line style="fill:none;stroke:#535353;stroke-width:2;stroke-linecap:round;stroke-linejoin:round;stroke-miterlimit:10" x1="1" y1="32" x2="14.5" y2="32" fill="#535353"/>
<path style="fill:none;stroke:#535353;stroke-width:2;stroke-linecap:round;stroke-linejoin:round;stroke-miterlimit:10" d="  M14.5,32c4.1,0,7.5,3.4,7.5,7.5S18.6,47,14.5,47c-2.9,0-5.4-1.6-6.6-4" fill="#535353"/>
</svg>
